<?xml version="1.0" encoding="utf-8"?>
<Project name="Mon film" themeId="0" version="65538" templateID="SimpleProjectTemplate">
  <MediaItems>
    <MediaItem id="163" filePath="C:\Users\Jean-Christophe\Desktop\Philippe\LOVE 7.0\Dungeon Shooter 2\app\wood\brank\lonely Kagamin\images\165.png" arWidth="96" arHeight="54" duration="0" songTitle="" songArtist="" songAlbum="" />
    <MediaItem id="164" filePath="C:\Users\Jean-Christophe\Desktop\Philippe\LOVE 7.0\Dungeon Shooter 2\app\wood\brank\lonely Kagamin\images\166.png" arWidth="96" arHeight="54" duration="0" songTitle="" songArtist="" songAlbum="" />
    <MediaItem id="1" filePath="C:\Users\Jean-Christophe\Desktop\Philippe\LOVE 7.0\Dungeon Shooter 2\app\wood\brank\lonely Kagamin\images\0.png" arWidth="256" arHeight="144" duration="0" songTitle="" songArtist="" songAlbum="" />
    <MediaItem id="165" filePath="C:\Users\Jean-Christophe\Desktop\Philippe\LOVE 7.0\Dungeon Shooter 2\app\wood\brank\lonely Kagamin\images\167.png" arWidth="96" arHeight="54" duration="0" songTitle="" songArtist="" songAlbum="" />
    <MediaItem id="2" filePath="C:\Users\Jean-Christophe\Desktop\Philippe\LOVE 7.0\Dungeon Shooter 2\app\wood\brank\lonely Kagamin\images\1.png" arWidth="256" arHeight="144" duration="0" songTitle="" songArtist="" songAlbum="" />
    <MediaItem id="166" filePath="C:\Users\Jean-Christophe\Desktop\Philippe\LOVE 7.0\Dungeon Shooter 2\app\wood\brank\lonely Kagamin\images\168.png" arWidth="96" arHeight="54" duration="0" songTitle="" songArtist="" songAlbum="" />
    <MediaItem id="3" filePath="C:\Users\Jean-Christophe\Desktop\Philippe\LOVE 7.0\Dungeon Shooter 2\app\wood\brank\lonely Kagamin\images\2.png" arWidth="256" arHeight="144" duration="0" songTitle="" songArtist="" songAlbum="" />
    <MediaItem id="167" filePath="C:\Users\Jean-Christophe\Desktop\Philippe\LOVE 7.0\Dungeon Shooter 2\app\wood\brank\lonely Kagamin\images\169.png" arWidth="96" arHeight="54" duration="0" songTitle="" songArtist="" songAlbum="" />
    <MediaItem id="4" filePath="C:\Users\Jean-Christophe\Desktop\Philippe\LOVE 7.0\Dungeon Shooter 2\app\wood\brank\lonely Kagamin\images\3.png" arWidth="1600" arHeight="900" duration="0" songTitle="" songArtist="" songAlbum="" />
    <MediaItem id="168" filePath="C:\Users\Jean-Christophe\Desktop\Philippe\LOVE 7.0\Dungeon Shooter 2\app\wood\brank\lonely Kagamin\images\170.png" arWidth="96" arHeight="54" duration="0" songTitle="" songArtist="" songAlbum="" />
    <MediaItem id="5" filePath="C:\Users\Jean-Christophe\Desktop\Philippe\LOVE 7.0\Dungeon Shooter 2\app\wood\brank\lonely Kagamin\images\4.png" arWidth="1600" arHeight="900" duration="0" songTitle="" songArtist="" songAlbum="" />
    <MediaItem id="169" filePath="C:\Users\Jean-Christophe\Desktop\Philippe\LOVE 7.0\Dungeon Shooter 2\app\wood\brank\lonely Kagamin\images\171.png" arWidth="96" arHeight="54" duration="0" songTitle="" songArtist="" songAlbum="" />
    <MediaItem id="6" filePath="C:\Users\Jean-Christophe\Desktop\Philippe\LOVE 7.0\Dungeon Shooter 2\app\wood\brank\lonely Kagamin\images\5.png" arWidth="256" arHeight="144" duration="0" songTitle="" songArtist="" songAlbum="" />
    <MediaItem id="170" filePath="C:\Users\Jean-Christophe\Desktop\Philippe\LOVE 7.0\Dungeon Shooter 2\app\wood\brank\lonely Kagamin\images\172.png" arWidth="96" arHeight="54" duration="0" songTitle="" songArtist="" songAlbum="" />
    <MediaItem id="7" filePath="C:\Users\Jean-Christophe\Desktop\Philippe\LOVE 7.0\Dungeon Shooter 2\app\wood\brank\lonely Kagamin\images\6.png" arWidth="1600" arHeight="900" duration="0" songTitle="" songArtist="" songAlbum="" />
    <MediaItem id="171" filePath="C:\Users\Jean-Christophe\Desktop\Philippe\LOVE 7.0\Dungeon Shooter 2\app\wood\brank\lonely Kagamin\images\173.png" arWidth="96" arHeight="54" duration="0" songTitle="" songArtist="" songAlbum="" />
    <MediaItem id="8" filePath="C:\Users\Jean-Christophe\Desktop\Philippe\LOVE 7.0\Dungeon Shooter 2\app\wood\brank\lonely Kagamin\images\7.png" arWidth="1600" arHeight="900" duration="0" songTitle="" songArtist="" songAlbum="" />
    <MediaItem id="172" filePath="C:\Users\Jean-Christophe\Desktop\Philippe\LOVE 7.0\Dungeon Shooter 2\app\wood\brank\lonely Kagamin\images\174.png" arWidth="96" arHeight="54" duration="0" songTitle="" songArtist="" songAlbum="" />
    <MediaItem id="9" filePath="C:\Users\Jean-Christophe\Desktop\Philippe\LOVE 7.0\Dungeon Shooter 2\app\wood\brank\lonely Kagamin\images\8.png" arWidth="1600" arHeight="900" duration="0" songTitle="" songArtist="" songAlbum="" />
    <MediaItem id="173" filePath="C:\Users\Jean-Christophe\Desktop\Philippe\LOVE 7.0\Dungeon Shooter 2\app\wood\brank\lonely Kagamin\images\175.png" arWidth="96" arHeight="54" duration="0" songTitle="" songArtist="" songAlbum="" />
    <MediaItem id="10" filePath="C:\Users\Jean-Christophe\Desktop\Philippe\LOVE 7.0\Dungeon Shooter 2\app\wood\brank\lonely Kagamin\images\9.png" arWidth="1600" arHeight="900" duration="0" songTitle="" songArtist="" songAlbum="" />
    <MediaItem id="174" filePath="C:\Users\Jean-Christophe\Desktop\Philippe\LOVE 7.0\Dungeon Shooter 2\app\wood\brank\lonely Kagamin\images\176.png" arWidth="96" arHeight="54" duration="0" songTitle="" songArtist="" songAlbum="" />
    <MediaItem id="11" filePath="C:\Users\Jean-Christophe\Desktop\Philippe\LOVE 7.0\Dungeon Shooter 2\app\wood\brank\lonely Kagamin\images\10.png" arWidth="96" arHeight="54" duration="0" songTitle="" songArtist="" songAlbum="" />
    <MediaItem id="175" filePath="C:\Users\Jean-Christophe\Desktop\Philippe\LOVE 7.0\Dungeon Shooter 2\app\wood\brank\lonely Kagamin\images\177.png" arWidth="96" arHeight="54" duration="0" songTitle="" songArtist="" songAlbum="" />
    <MediaItem id="12" filePath="C:\Users\Jean-Christophe\Desktop\Philippe\LOVE 7.0\Dungeon Shooter 2\app\wood\brank\lonely Kagamin\images\11.png" arWidth="96" arHeight="54" duration="0" songTitle="" songArtist="" songAlbum="" />
    <MediaItem id="176" filePath="C:\Users\Jean-Christophe\Desktop\Philippe\LOVE 7.0\Dungeon Shooter 2\app\wood\brank\lonely Kagamin\images\178.png" arWidth="96" arHeight="54" duration="0" songTitle="" songArtist="" songAlbum="" />
    <MediaItem id="13" filePath="C:\Users\Jean-Christophe\Desktop\Philippe\LOVE 7.0\Dungeon Shooter 2\app\wood\brank\lonely Kagamin\images\12.png" arWidth="96" arHeight="54" duration="0" songTitle="" songArtist="" songAlbum="" />
    <MediaItem id="177" filePath="C:\Users\Jean-Christophe\Desktop\Philippe\LOVE 7.0\Dungeon Shooter 2\app\wood\brank\lonely Kagamin\images\179.png" arWidth="96" arHeight="54" duration="0" songTitle="" songArtist="" songAlbum="" />
    <MediaItem id="14" filePath="C:\Users\Jean-Christophe\Desktop\Philippe\LOVE 7.0\Dungeon Shooter 2\app\wood\brank\lonely Kagamin\images\13.png" arWidth="1600" arHeight="900" duration="0" songTitle="" songArtist="" songAlbum="" />
    <MediaItem id="178" filePath="C:\Users\Jean-Christophe\Desktop\Philippe\LOVE 7.0\Dungeon Shooter 2\app\wood\brank\lonely Kagamin\images\180.png" arWidth="96" arHeight="54" duration="0" songTitle="" songArtist="" songAlbum="" />
    <MediaItem id="15" filePath="C:\Users\Jean-Christophe\Desktop\Philippe\LOVE 7.0\Dungeon Shooter 2\app\wood\brank\lonely Kagamin\images\14.png" arWidth="1600" arHeight="900" duration="0" songTitle="" songArtist="" songAlbum="" />
    <MediaItem id="179" filePath="C:\Users\Jean-Christophe\Desktop\Philippe\LOVE 7.0\Dungeon Shooter 2\app\wood\brank\lonely Kagamin\images\181.png" arWidth="96" arHeight="54" duration="0" songTitle="" songArtist="" songAlbum="" />
    <MediaItem id="16" filePath="C:\Users\Jean-Christophe\Desktop\Philippe\LOVE 7.0\Dungeon Shooter 2\app\wood\brank\lonely Kagamin\images\15.png" arWidth="96" arHeight="54" duration="0" songTitle="" songArtist="" songAlbum="" />
    <MediaItem id="180" filePath="C:\Users\Jean-Christophe\Desktop\Philippe\LOVE 7.0\Dungeon Shooter 2\app\wood\brank\lonely Kagamin\images\182.png" arWidth="96" arHeight="54" duration="0" songTitle="" songArtist="" songAlbum="" />
    <MediaItem id="17" filePath="C:\Users\Jean-Christophe\Desktop\Philippe\LOVE 7.0\Dungeon Shooter 2\app\wood\brank\lonely Kagamin\images\16.png" arWidth="96" arHeight="54" duration="0" songTitle="" songArtist="" songAlbum="" />
    <MediaItem id="181" filePath="C:\Users\Jean-Christophe\Desktop\Philippe\LOVE 7.0\Dungeon Shooter 2\app\wood\brank\lonely Kagamin\images\183.png" arWidth="96" arHeight="54" duration="0" songTitle="" songArtist="" songAlbum="" />
    <MediaItem id="18" filePath="C:\Users\Jean-Christophe\Desktop\Philippe\LOVE 7.0\Dungeon Shooter 2\app\wood\brank\lonely Kagamin\images\17.png" arWidth="1600" arHeight="900" duration="0" songTitle="" songArtist="" songAlbum="" />
    <MediaItem id="182" filePath="C:\Users\Jean-Christophe\Desktop\Philippe\LOVE 7.0\Dungeon Shooter 2\app\wood\brank\lonely Kagamin\images\184.png" arWidth="96" arHeight="54" duration="0" songTitle="" songArtist="" songAlbum="" />
    <MediaItem id="19" filePath="C:\Users\Jean-Christophe\Desktop\Philippe\LOVE 7.0\Dungeon Shooter 2\app\wood\brank\lonely Kagamin\images\18.png" arWidth="1600" arHeight="900" duration="0" songTitle="" songArtist="" songAlbum="" />
    <MediaItem id="183" filePath="C:\Users\Jean-Christophe\Desktop\Philippe\LOVE 7.0\Dungeon Shooter 2\app\wood\brank\lonely Kagamin\images\185.png" arWidth="96" arHeight="54" duration="0" songTitle="" songArtist="" songAlbum="" />
    <MediaItem id="20" filePath="C:\Users\Jean-Christophe\Desktop\Philippe\LOVE 7.0\Dungeon Shooter 2\app\wood\brank\lonely Kagamin\images\19.png" arWidth="96" arHeight="54" duration="0" songTitle="" songArtist="" songAlbum="" />
    <MediaItem id="184" filePath="C:\Users\Jean-Christophe\Desktop\Philippe\LOVE 7.0\Dungeon Shooter 2\app\wood\brank\lonely Kagamin\images\186.png" arWidth="96" arHeight="54" duration="0" songTitle="" songArtist="" songAlbum="" />
    <MediaItem id="21" filePath="C:\Users\Jean-Christophe\Desktop\Philippe\LOVE 7.0\Dungeon Shooter 2\app\wood\brank\lonely Kagamin\images\20.png" arWidth="96" arHeight="54" duration="0" songTitle="" songArtist="" songAlbum="" />
    <MediaItem id="185" filePath="C:\Users\Jean-Christophe\Desktop\Philippe\LOVE 7.0\Dungeon Shooter 2\app\wood\brank\lonely Kagamin\images\187.png" arWidth="96" arHeight="54" duration="0" songTitle="" songArtist="" songAlbum="" />
    <MediaItem id="22" filePath="C:\Users\Jean-Christophe\Desktop\Philippe\LOVE 7.0\Dungeon Shooter 2\app\wood\brank\lonely Kagamin\images\21.png" arWidth="96" arHeight="54" duration="0" songTitle="" songArtist="" songAlbum="" />
    <MediaItem id="186" filePath="C:\Users\Jean-Christophe\Desktop\Philippe\LOVE 7.0\Dungeon Shooter 2\app\wood\brank\lonely Kagamin\images\188.png" arWidth="256" arHeight="144" duration="0" songTitle="" songArtist="" songAlbum="" />
    <MediaItem id="23" filePath="C:\Users\Jean-Christophe\Desktop\Philippe\LOVE 7.0\Dungeon Shooter 2\app\wood\brank\lonely Kagamin\images\22.png" arWidth="96" arHeight="54" duration="0" songTitle="" songArtist="" songAlbum="" />
    <MediaItem id="187" filePath="C:\Users\Jean-Christophe\Desktop\Philippe\LOVE 7.0\Dungeon Shooter 2\app\wood\brank\lonely Kagamin\images\189.png" arWidth="96" arHeight="54" duration="0" songTitle="" songArtist="" songAlbum="" />
    <MediaItem id="24" filePath="C:\Users\Jean-Christophe\Desktop\Philippe\LOVE 7.0\Dungeon Shooter 2\app\wood\brank\lonely Kagamin\images\23.png" arWidth="96" arHeight="54" duration="0" songTitle="" songArtist="" songAlbum="" />
    <MediaItem id="188" filePath="C:\Users\Jean-Christophe\Desktop\Philippe\LOVE 7.0\Dungeon Shooter 2\app\wood\brank\lonely Kagamin\images\190.png" arWidth="96" arHeight="54" duration="0" songTitle="" songArtist="" songAlbum="" />
    <MediaItem id="25" filePath="C:\Users\Jean-Christophe\Desktop\Philippe\LOVE 7.0\Dungeon Shooter 2\app\wood\brank\lonely Kagamin\images\24.png" arWidth="96" arHeight="54" duration="0" songTitle="" songArtist="" songAlbum="" />
    <MediaItem id="189" filePath="C:\Users\Jean-Christophe\Desktop\Philippe\LOVE 7.0\Dungeon Shooter 2\app\wood\brank\lonely Kagamin\images\191.png" arWidth="96" arHeight="54" duration="0" songTitle="" songArtist="" songAlbum="" />
    <MediaItem id="26" filePath="C:\Users\Jean-Christophe\Desktop\Philippe\LOVE 7.0\Dungeon Shooter 2\app\wood\brank\lonely Kagamin\images\25.png" arWidth="96" arHeight="54" duration="0" songTitle="" songArtist="" songAlbum="" />
    <MediaItem id="190" filePath="C:\Users\Jean-Christophe\Desktop\Philippe\LOVE 7.0\Dungeon Shooter 2\app\wood\brank\lonely Kagamin\images\192.png" arWidth="96" arHeight="54" duration="0" songTitle="" songArtist="" songAlbum="" />
    <MediaItem id="27" filePath="C:\Users\Jean-Christophe\Desktop\Philippe\LOVE 7.0\Dungeon Shooter 2\app\wood\brank\lonely Kagamin\images\26.png" arWidth="96" arHeight="54" duration="0" songTitle="" songArtist="" songAlbum="" />
    <MediaItem id="191" filePath="C:\Users\Jean-Christophe\Desktop\Philippe\LOVE 7.0\Dungeon Shooter 2\app\wood\brank\lonely Kagamin\images\193.png" arWidth="96" arHeight="54" duration="0" songTitle="" songArtist="" songAlbum="" />
    <MediaItem id="28" filePath="C:\Users\Jean-Christophe\Desktop\Philippe\LOVE 7.0\Dungeon Shooter 2\app\wood\brank\lonely Kagamin\images\27.png" arWidth="96" arHeight="54" duration="0" songTitle="" songArtist="" songAlbum="" />
    <MediaItem id="192" filePath="C:\Users\Jean-Christophe\Desktop\Philippe\LOVE 7.0\Dungeon Shooter 2\app\wood\brank\lonely Kagamin\images\194.png" arWidth="96" arHeight="54" duration="0" songTitle="" songArtist="" songAlbum="" />
    <MediaItem id="29" filePath="C:\Users\Jean-Christophe\Desktop\Philippe\LOVE 7.0\Dungeon Shooter 2\app\wood\brank\lonely Kagamin\images\28.png" arWidth="96" arHeight="54" duration="0" songTitle="" songArtist="" songAlbum="" />
    <MediaItem id="193" filePath="C:\Users\Jean-Christophe\Desktop\Philippe\LOVE 7.0\Dungeon Shooter 2\app\wood\brank\lonely Kagamin\images\195.png" arWidth="96" arHeight="54" duration="0" songTitle="" songArtist="" songAlbum="" />
    <MediaItem id="194" filePath="C:\Users\Jean-Christophe\Desktop\Philippe\LOVE 7.0\Dungeon Shooter 2\app\wood\brank\lonely Kagamin\images\196.png" arWidth="96" arHeight="54" duration="0" songTitle="" songArtist="" songAlbum="" />
    <MediaItem id="31" filePath="C:\Users\Jean-Christophe\Desktop\Philippe\LOVE 7.0\Dungeon Shooter 2\app\wood\brank\lonely Kagamin\images\30.png" arWidth="96" arHeight="54" duration="0" songTitle="" songArtist="" songAlbum="" />
    <MediaItem id="195" filePath="C:\Users\Jean-Christophe\Desktop\Philippe\LOVE 7.0\Dungeon Shooter 2\app\wood\brank\lonely Kagamin\images\197.png" arWidth="96" arHeight="54" duration="0" songTitle="" songArtist="" songAlbum="" />
    <MediaItem id="32" filePath="C:\Users\Jean-Christophe\Desktop\Philippe\LOVE 7.0\Dungeon Shooter 2\app\wood\brank\lonely Kagamin\images\31.png" arWidth="96" arHeight="54" duration="0" songTitle="" songArtist="" songAlbum="" />
    <MediaItem id="196" filePath="C:\Users\Jean-Christophe\Desktop\Philippe\LOVE 7.0\Dungeon Shooter 2\app\wood\brank\lonely Kagamin\images\198.png" arWidth="256" arHeight="144" duration="0" songTitle="" songArtist="" songAlbum="" />
    <MediaItem id="33" filePath="C:\Users\Jean-Christophe\Desktop\Philippe\LOVE 7.0\Dungeon Shooter 2\app\wood\brank\lonely Kagamin\images\32.png" arWidth="96" arHeight="54" duration="0" songTitle="" songArtist="" songAlbum="" />
    <MediaItem id="197" filePath="C:\Users\Jean-Christophe\Desktop\Philippe\LOVE 7.0\Dungeon Shooter 2\app\wood\brank\lonely Kagamin\images\199.png" arWidth="96" arHeight="54" duration="0" songTitle="" songArtist="" songAlbum="" />
    <MediaItem id="34" filePath="C:\Users\Jean-Christophe\Desktop\Philippe\LOVE 7.0\Dungeon Shooter 2\app\wood\brank\lonely Kagamin\images\33.png" arWidth="96" arHeight="54" duration="0" songTitle="" songArtist="" songAlbum="" />
    <MediaItem id="198" filePath="C:\Users\Jean-Christophe\Desktop\Philippe\LOVE 7.0\Dungeon Shooter 2\app\wood\brank\lonely Kagamin\images\200.png" arWidth="96" arHeight="54" duration="0" songTitle="" songArtist="" songAlbum="" />
    <MediaItem id="35" filePath="C:\Users\Jean-Christophe\Desktop\Philippe\LOVE 7.0\Dungeon Shooter 2\app\wood\brank\lonely Kagamin\images\34.png" arWidth="96" arHeight="54" duration="0" songTitle="" songArtist="" songAlbum="" />
    <MediaItem id="199" filePath="C:\Users\Jean-Christophe\Desktop\Philippe\LOVE 7.0\Dungeon Shooter 2\app\wood\brank\lonely Kagamin\images\201.png" arWidth="96" arHeight="54" duration="0" songTitle="" songArtist="" songAlbum="" />
    <MediaItem id="36" filePath="C:\Users\Jean-Christophe\Desktop\Philippe\LOVE 7.0\Dungeon Shooter 2\app\wood\brank\lonely Kagamin\images\35.png" arWidth="96" arHeight="54" duration="0" songTitle="" songArtist="" songAlbum="" />
    <MediaItem id="200" filePath="C:\Users\Jean-Christophe\Desktop\Philippe\LOVE 7.0\Dungeon Shooter 2\app\wood\brank\lonely Kagamin\images\202.png" arWidth="96" arHeight="54" duration="0" songTitle="" songArtist="" songAlbum="" />
    <MediaItem id="37" filePath="C:\Users\Jean-Christophe\Desktop\Philippe\LOVE 7.0\Dungeon Shooter 2\app\wood\brank\lonely Kagamin\images\36.png" arWidth="96" arHeight="54" duration="0" songTitle="" songArtist="" songAlbum="" />
    <MediaItem id="201" filePath="C:\Users\Jean-Christophe\Desktop\Philippe\LOVE 7.0\Dungeon Shooter 2\app\wood\brank\lonely Kagamin\images\203.png" arWidth="96" arHeight="54" duration="0" songTitle="" songArtist="" songAlbum="" />
    <MediaItem id="38" filePath="C:\Users\Jean-Christophe\Desktop\Philippe\LOVE 7.0\Dungeon Shooter 2\app\wood\brank\lonely Kagamin\images\37.png" arWidth="1600" arHeight="900" duration="0" songTitle="" songArtist="" songAlbum="" />
    <MediaItem id="202" filePath="C:\Users\Jean-Christophe\Desktop\Philippe\LOVE 7.0\Dungeon Shooter 2\app\wood\brank\lonely Kagamin\images\204.png" arWidth="96" arHeight="54" duration="0" songTitle="" songArtist="" songAlbum="" />
    <MediaItem id="39" filePath="C:\Users\Jean-Christophe\Desktop\Philippe\LOVE 7.0\Dungeon Shooter 2\app\wood\brank\lonely Kagamin\images\38.png" arWidth="1600" arHeight="900" duration="0" songTitle="" songArtist="" songAlbum="" />
    <MediaItem id="203" filePath="C:\Users\Jean-Christophe\Desktop\Philippe\LOVE 7.0\Dungeon Shooter 2\app\wood\brank\lonely Kagamin\images\205.png" arWidth="96" arHeight="54" duration="0" songTitle="" songArtist="" songAlbum="" />
    <MediaItem id="40" filePath="C:\Users\Jean-Christophe\Desktop\Philippe\LOVE 7.0\Dungeon Shooter 2\app\wood\brank\lonely Kagamin\images\39.png" arWidth="96" arHeight="54" duration="0" songTitle="" songArtist="" songAlbum="" />
    <MediaItem id="204" filePath="C:\Users\Jean-Christophe\Desktop\Philippe\LOVE 7.0\Dungeon Shooter 2\app\wood\brank\lonely Kagamin\images\206.png" arWidth="96" arHeight="54" duration="0" songTitle="" songArtist="" songAlbum="" />
    <MediaItem id="41" filePath="C:\Users\Jean-Christophe\Desktop\Philippe\LOVE 7.0\Dungeon Shooter 2\app\wood\brank\lonely Kagamin\images\40.png" arWidth="96" arHeight="54" duration="0" songTitle="" songArtist="" songAlbum="" />
    <MediaItem id="205" filePath="C:\Users\Jean-Christophe\Desktop\Philippe\LOVE 7.0\Dungeon Shooter 2\app\wood\brank\lonely Kagamin\images\29s.png" arWidth="256" arHeight="144" duration="0" songTitle="" songArtist="" songAlbum="" />
    <MediaItem id="42" filePath="C:\Users\Jean-Christophe\Desktop\Philippe\LOVE 7.0\Dungeon Shooter 2\app\wood\brank\lonely Kagamin\images\41.png" arWidth="96" arHeight="54" duration="0" songTitle="" songArtist="" songAlbum="" />
    <MediaItem id="206" filePath="C:\Users\Jean-Christophe\Desktop\Philippe\LOVE 7.0\Dungeon Shooter 2\app\wood\brank\lonely Kagamin\images\208.png" arWidth="96" arHeight="54" duration="0" songTitle="" songArtist="" songAlbum="" />
    <MediaItem id="43" filePath="C:\Users\Jean-Christophe\Desktop\Philippe\LOVE 7.0\Dungeon Shooter 2\app\wood\brank\lonely Kagamin\images\42.png" arWidth="96" arHeight="54" duration="0" songTitle="" songArtist="" songAlbum="" />
    <MediaItem id="207" filePath="C:\Users\Jean-Christophe\Desktop\Philippe\LOVE 7.0\Dungeon Shooter 2\app\wood\brank\lonely Kagamin\images\209.png" arWidth="96" arHeight="54" duration="0" songTitle="" songArtist="" songAlbum="" />
    <MediaItem id="44" filePath="C:\Users\Jean-Christophe\Desktop\Philippe\LOVE 7.0\Dungeon Shooter 2\app\wood\brank\lonely Kagamin\images\43.png" arWidth="96" arHeight="54" duration="0" songTitle="" songArtist="" songAlbum="" />
    <MediaItem id="208" filePath="C:\Users\Jean-Christophe\Desktop\Philippe\LOVE 7.0\Dungeon Shooter 2\app\wood\brank\lonely Kagamin\images\210.png" arWidth="96" arHeight="54" duration="0" songTitle="" songArtist="" songAlbum="" />
    <MediaItem id="45" filePath="C:\Users\Jean-Christophe\Desktop\Philippe\LOVE 7.0\Dungeon Shooter 2\app\wood\brank\lonely Kagamin\images\44.png" arWidth="96" arHeight="54" duration="0" songTitle="" songArtist="" songAlbum="" />
    <MediaItem id="209" filePath="C:\Users\Jean-Christophe\Desktop\Philippe\LOVE 7.0\Dungeon Shooter 2\app\wood\brank\lonely Kagamin\images\211.png" arWidth="96" arHeight="54" duration="0" songTitle="" songArtist="" songAlbum="" />
    <MediaItem id="46" filePath="C:\Users\Jean-Christophe\Desktop\Philippe\LOVE 7.0\Dungeon Shooter 2\app\wood\brank\lonely Kagamin\images\45.png" arWidth="96" arHeight="54" duration="0" songTitle="" songArtist="" songAlbum="" />
    <MediaItem id="210" filePath="C:\Users\Jean-Christophe\Desktop\Philippe\LOVE 7.0\Dungeon Shooter 2\app\wood\brank\lonely Kagamin\images\212.png" arWidth="96" arHeight="54" duration="0" songTitle="" songArtist="" songAlbum="" />
    <MediaItem id="47" filePath="C:\Users\Jean-Christophe\Desktop\Philippe\LOVE 7.0\Dungeon Shooter 2\app\wood\brank\lonely Kagamin\images\46.png" arWidth="96" arHeight="54" duration="0" songTitle="" songArtist="" songAlbum="" />
    <MediaItem id="211" filePath="C:\Users\Jean-Christophe\Desktop\Philippe\LOVE 7.0\Dungeon Shooter 2\app\wood\brank\lonely Kagamin\images\213.png" arWidth="96" arHeight="54" duration="0" songTitle="" songArtist="" songAlbum="" />
    <MediaItem id="48" filePath="C:\Users\Jean-Christophe\Desktop\Philippe\LOVE 7.0\Dungeon Shooter 2\app\wood\brank\lonely Kagamin\images\47.png" arWidth="96" arHeight="54" duration="0" songTitle="" songArtist="" songAlbum="" />
    <MediaItem id="49" filePath="C:\Users\Jean-Christophe\Desktop\Philippe\LOVE 7.0\Dungeon Shooter 2\app\wood\brank\lonely Kagamin\images\48.png" arWidth="96" arHeight="54" duration="0" songTitle="" songArtist="" songAlbum="" />
    <MediaItem id="212" filePath="C:\Users\Jean-Christophe\Desktop\Philippe\LOVE 7.0\Dungeon Shooter 2\app\wood\brank\lonely Kagamin\images\214.png" arWidth="96" arHeight="54" duration="0" songTitle="" songArtist="" songAlbum="" />
    <MediaItem id="50" filePath="C:\Users\Jean-Christophe\Desktop\Philippe\LOVE 7.0\Dungeon Shooter 2\app\wood\brank\lonely Kagamin\images\49.png" arWidth="96" arHeight="54" duration="0" songTitle="" songArtist="" songAlbum="" />
    <MediaItem id="213" filePath="C:\Users\Jean-Christophe\Desktop\Philippe\LOVE 7.0\Dungeon Shooter 2\app\wood\brank\lonely Kagamin\images\215.png" arWidth="96" arHeight="54" duration="0" songTitle="" songArtist="" songAlbum="" />
    <MediaItem id="51" filePath="C:\Users\Jean-Christophe\Desktop\Philippe\LOVE 7.0\Dungeon Shooter 2\app\wood\brank\lonely Kagamin\images\50.png" arWidth="96" arHeight="54" duration="0" songTitle="" songArtist="" songAlbum="" />
    <MediaItem id="214" filePath="C:\Users\Jean-Christophe\Desktop\Philippe\LOVE 7.0\Dungeon Shooter 2\app\wood\brank\lonely Kagamin\images\216.png" arWidth="96" arHeight="54" duration="0" songTitle="" songArtist="" songAlbum="" />
    <MediaItem id="52" filePath="C:\Users\Jean-Christophe\Desktop\Philippe\LOVE 7.0\Dungeon Shooter 2\app\wood\brank\lonely Kagamin\images\51.png" arWidth="96" arHeight="54" duration="0" songTitle="" songArtist="" songAlbum="" />
    <MediaItem id="215" filePath="C:\Users\Jean-Christophe\Desktop\Philippe\LOVE 7.0\Dungeon Shooter 2\app\wood\brank\lonely Kagamin\images\217.png" arWidth="96" arHeight="54" duration="0" songTitle="" songArtist="" songAlbum="" />
    <MediaItem id="216" filePath="C:\Users\Jean-Christophe\Desktop\Philippe\LOVE 7.0\Dungeon Shooter 2\app\wood\brank\lonely Kagamin\images\218.png" arWidth="256" arHeight="144" duration="0" songTitle="" songArtist="" songAlbum="" />
    <MediaItem id="53" filePath="C:\Users\Jean-Christophe\Desktop\Philippe\LOVE 7.0\Dungeon Shooter 2\app\wood\brank\lonely Kagamin\images\52.png" arWidth="96" arHeight="54" duration="0" songTitle="" songArtist="" songAlbum="" />
    <MediaItem id="217" filePath="C:\Users\Jean-Christophe\Desktop\Philippe\LOVE 7.0\Dungeon Shooter 2\app\wood\brank\lonely Kagamin\musique.wma" arWidth="0" arHeight="0" duration="887.745" songTitle="" songArtist="" songAlbum="" />
    <MediaItem id="54" filePath="C:\Users\Jean-Christophe\Desktop\Philippe\LOVE 7.0\Dungeon Shooter 2\app\wood\brank\lonely Kagamin\images\53.png" arWidth="96" arHeight="54" duration="0" songTitle="" songArtist="" songAlbum="" />
    <MediaItem id="55" filePath="C:\Users\Jean-Christophe\Desktop\Philippe\LOVE 7.0\Dungeon Shooter 2\app\wood\brank\lonely Kagamin\images\54.png" arWidth="96" arHeight="54" duration="0" songTitle="" songArtist="" songAlbum="" />
    <MediaItem id="56" filePath="C:\Users\Jean-Christophe\Desktop\Philippe\LOVE 7.0\Dungeon Shooter 2\app\wood\brank\lonely Kagamin\images\55.png" arWidth="96" arHeight="54" duration="0" songTitle="" songArtist="" songAlbum="" />
    <MediaItem id="57" filePath="C:\Users\Jean-Christophe\Desktop\Philippe\LOVE 7.0\Dungeon Shooter 2\app\wood\brank\lonely Kagamin\images\56.png" arWidth="96" arHeight="54" duration="0" songTitle="" songArtist="" songAlbum="" />
    <MediaItem id="58" filePath="C:\Users\Jean-Christophe\Desktop\Philippe\LOVE 7.0\Dungeon Shooter 2\app\wood\brank\lonely Kagamin\images\57.png" arWidth="96" arHeight="54" duration="0" songTitle="" songArtist="" songAlbum="" />
    <MediaItem id="59" filePath="C:\Users\Jean-Christophe\Desktop\Philippe\LOVE 7.0\Dungeon Shooter 2\app\wood\brank\lonely Kagamin\images\58.png" arWidth="96" arHeight="54" duration="0" songTitle="" songArtist="" songAlbum="" />
    <MediaItem id="60" filePath="C:\Users\Jean-Christophe\Desktop\Philippe\LOVE 7.0\Dungeon Shooter 2\app\wood\brank\lonely Kagamin\images\59.png" arWidth="96" arHeight="54" duration="0" songTitle="" songArtist="" songAlbum="" />
    <MediaItem id="61" filePath="C:\Users\Jean-Christophe\Desktop\Philippe\LOVE 7.0\Dungeon Shooter 2\app\wood\brank\lonely Kagamin\images\60.png" arWidth="96" arHeight="54" duration="0" songTitle="" songArtist="" songAlbum="" />
    <MediaItem id="62" filePath="C:\Users\Jean-Christophe\Desktop\Philippe\LOVE 7.0\Dungeon Shooter 2\app\wood\brank\lonely Kagamin\images\61.png" arWidth="96" arHeight="54" duration="0" songTitle="" songArtist="" songAlbum="" />
    <MediaItem id="63" filePath="C:\Users\Jean-Christophe\Desktop\Philippe\LOVE 7.0\Dungeon Shooter 2\app\wood\brank\lonely Kagamin\images\62.png" arWidth="96" arHeight="54" duration="0" songTitle="" songArtist="" songAlbum="" />
    <MediaItem id="64" filePath="C:\Users\Jean-Christophe\Desktop\Philippe\LOVE 7.0\Dungeon Shooter 2\app\wood\brank\lonely Kagamin\images\63.png" arWidth="96" arHeight="54" duration="0" songTitle="" songArtist="" songAlbum="" />
    <MediaItem id="65" filePath="C:\Users\Jean-Christophe\Desktop\Philippe\LOVE 7.0\Dungeon Shooter 2\app\wood\brank\lonely Kagamin\images\64.png" arWidth="96" arHeight="54" duration="0" songTitle="" songArtist="" songAlbum="" />
    <MediaItem id="66" filePath="C:\Users\Jean-Christophe\Desktop\Philippe\LOVE 7.0\Dungeon Shooter 2\app\wood\brank\lonely Kagamin\images\65.png" arWidth="96" arHeight="54" duration="0" songTitle="" songArtist="" songAlbum="" />
    <MediaItem id="67" filePath="C:\Users\Jean-Christophe\Desktop\Philippe\LOVE 7.0\Dungeon Shooter 2\app\wood\brank\lonely Kagamin\images\66.png" arWidth="96" arHeight="54" duration="0" songTitle="" songArtist="" songAlbum="" />
    <MediaItem id="68" filePath="C:\Users\Jean-Christophe\Desktop\Philippe\LOVE 7.0\Dungeon Shooter 2\app\wood\brank\lonely Kagamin\images\67.png" arWidth="96" arHeight="54" duration="0" songTitle="" songArtist="" songAlbum="" />
    <MediaItem id="69" filePath="C:\Users\Jean-Christophe\Desktop\Philippe\LOVE 7.0\Dungeon Shooter 2\app\wood\brank\lonely Kagamin\images\68.png" arWidth="96" arHeight="54" duration="0" songTitle="" songArtist="" songAlbum="" />
    <MediaItem id="70" filePath="C:\Users\Jean-Christophe\Desktop\Philippe\LOVE 7.0\Dungeon Shooter 2\app\wood\brank\lonely Kagamin\images\69.png" arWidth="96" arHeight="54" duration="0" songTitle="" songArtist="" songAlbum="" />
    <MediaItem id="71" filePath="C:\Users\Jean-Christophe\Desktop\Philippe\LOVE 7.0\Dungeon Shooter 2\app\wood\brank\lonely Kagamin\images\70.png" arWidth="96" arHeight="54" duration="0" songTitle="" songArtist="" songAlbum="" />
    <MediaItem id="72" filePath="C:\Users\Jean-Christophe\Desktop\Philippe\LOVE 7.0\Dungeon Shooter 2\app\wood\brank\lonely Kagamin\images\71.png" arWidth="96" arHeight="54" duration="0" songTitle="" songArtist="" songAlbum="" />
    <MediaItem id="73" filePath="C:\Users\Jean-Christophe\Desktop\Philippe\LOVE 7.0\Dungeon Shooter 2\app\wood\brank\lonely Kagamin\images\72.png" arWidth="96" arHeight="54" duration="0" songTitle="" songArtist="" songAlbum="" />
    <MediaItem id="74" filePath="C:\Users\Jean-Christophe\Desktop\Philippe\LOVE 7.0\Dungeon Shooter 2\app\wood\brank\lonely Kagamin\images\73.png" arWidth="96" arHeight="54" duration="0" songTitle="" songArtist="" songAlbum="" />
    <MediaItem id="75" filePath="C:\Users\Jean-Christophe\Desktop\Philippe\LOVE 7.0\Dungeon Shooter 2\app\wood\brank\lonely Kagamin\images\74.png" arWidth="96" arHeight="54" duration="0" songTitle="" songArtist="" songAlbum="" />
    <MediaItem id="76" filePath="C:\Users\Jean-Christophe\Desktop\Philippe\LOVE 7.0\Dungeon Shooter 2\app\wood\brank\lonely Kagamin\images\75.png" arWidth="96" arHeight="54" duration="0" songTitle="" songArtist="" songAlbum="" />
    <MediaItem id="77" filePath="C:\Users\Jean-Christophe\Desktop\Philippe\LOVE 7.0\Dungeon Shooter 2\app\wood\brank\lonely Kagamin\images\76.png" arWidth="96" arHeight="54" duration="0" songTitle="" songArtist="" songAlbum="" />
    <MediaItem id="78" filePath="C:\Users\Jean-Christophe\Desktop\Philippe\LOVE 7.0\Dungeon Shooter 2\app\wood\brank\lonely Kagamin\images\77.png" arWidth="96" arHeight="54" duration="0" songTitle="" songArtist="" songAlbum="" />
    <MediaItem id="79" filePath="C:\Users\Jean-Christophe\Desktop\Philippe\LOVE 7.0\Dungeon Shooter 2\app\wood\brank\lonely Kagamin\images\78.png" arWidth="96" arHeight="54" duration="0" songTitle="" songArtist="" songAlbum="" />
    <MediaItem id="80" filePath="C:\Users\Jean-Christophe\Desktop\Philippe\LOVE 7.0\Dungeon Shooter 2\app\wood\brank\lonely Kagamin\images\79.png" arWidth="96" arHeight="54" duration="0" songTitle="" songArtist="" songAlbum="" />
    <MediaItem id="81" filePath="C:\Users\Jean-Christophe\Desktop\Philippe\LOVE 7.0\Dungeon Shooter 2\app\wood\brank\lonely Kagamin\images\80.png" arWidth="96" arHeight="54" duration="0" songTitle="" songArtist="" songAlbum="" />
    <MediaItem id="82" filePath="C:\Users\Jean-Christophe\Desktop\Philippe\LOVE 7.0\Dungeon Shooter 2\app\wood\brank\lonely Kagamin\images\81.png" arWidth="96" arHeight="54" duration="0" songTitle="" songArtist="" songAlbum="" />
    <MediaItem id="83" filePath="C:\Users\Jean-Christophe\Desktop\Philippe\LOVE 7.0\Dungeon Shooter 2\app\wood\brank\lonely Kagamin\images\82.png" arWidth="96" arHeight="54" duration="0" songTitle="" songArtist="" songAlbum="" />
    <MediaItem id="84" filePath="C:\Users\Jean-Christophe\Desktop\Philippe\LOVE 7.0\Dungeon Shooter 2\app\wood\brank\lonely Kagamin\images\83.png" arWidth="96" arHeight="54" duration="0" songTitle="" songArtist="" songAlbum="" />
    <MediaItem id="85" filePath="C:\Users\Jean-Christophe\Desktop\Philippe\LOVE 7.0\Dungeon Shooter 2\app\wood\brank\lonely Kagamin\images\84.png" arWidth="96" arHeight="54" duration="0" songTitle="" songArtist="" songAlbum="" />
    <MediaItem id="86" filePath="C:\Users\Jean-Christophe\Desktop\Philippe\LOVE 7.0\Dungeon Shooter 2\app\wood\brank\lonely Kagamin\images\85.png" arWidth="96" arHeight="54" duration="0" songTitle="" songArtist="" songAlbum="" />
    <MediaItem id="87" filePath="C:\Users\Jean-Christophe\Desktop\Philippe\LOVE 7.0\Dungeon Shooter 2\app\wood\brank\lonely Kagamin\images\86.png" arWidth="96" arHeight="54" duration="0" songTitle="" songArtist="" songAlbum="" />
    <MediaItem id="88" filePath="C:\Users\Jean-Christophe\Desktop\Philippe\LOVE 7.0\Dungeon Shooter 2\app\wood\brank\lonely Kagamin\images\87.png" arWidth="96" arHeight="54" duration="0" songTitle="" songArtist="" songAlbum="" />
    <MediaItem id="89" filePath="C:\Users\Jean-Christophe\Desktop\Philippe\LOVE 7.0\Dungeon Shooter 2\app\wood\brank\lonely Kagamin\images\88.png" arWidth="96" arHeight="54" duration="0" songTitle="" songArtist="" songAlbum="" />
    <MediaItem id="90" filePath="C:\Users\Jean-Christophe\Desktop\Philippe\LOVE 7.0\Dungeon Shooter 2\app\wood\brank\lonely Kagamin\images\89.png" arWidth="96" arHeight="54" duration="0" songTitle="" songArtist="" songAlbum="" />
    <MediaItem id="91" filePath="C:\Users\Jean-Christophe\Desktop\Philippe\LOVE 7.0\Dungeon Shooter 2\app\wood\brank\lonely Kagamin\images\90.png" arWidth="96" arHeight="54" duration="0" songTitle="" songArtist="" songAlbum="" />
    <MediaItem id="92" filePath="C:\Users\Jean-Christophe\Desktop\Philippe\LOVE 7.0\Dungeon Shooter 2\app\wood\brank\lonely Kagamin\images\91.png" arWidth="96" arHeight="54" duration="0" songTitle="" songArtist="" songAlbum="" />
    <MediaItem id="93" filePath="C:\Users\Jean-Christophe\Desktop\Philippe\LOVE 7.0\Dungeon Shooter 2\app\wood\brank\lonely Kagamin\images\92.png" arWidth="96" arHeight="54" duration="0" songTitle="" songArtist="" songAlbum="" />
    <MediaItem id="94" filePath="C:\Users\Jean-Christophe\Desktop\Philippe\LOVE 7.0\Dungeon Shooter 2\app\wood\brank\lonely Kagamin\images\93.png" arWidth="96" arHeight="54" duration="0" songTitle="" songArtist="" songAlbum="" />
    <MediaItem id="95" filePath="C:\Users\Jean-Christophe\Desktop\Philippe\LOVE 7.0\Dungeon Shooter 2\app\wood\brank\lonely Kagamin\images\97.png" arWidth="96" arHeight="54" duration="0" songTitle="" songArtist="" songAlbum="" />
    <MediaItem id="96" filePath="C:\Users\Jean-Christophe\Desktop\Philippe\LOVE 7.0\Dungeon Shooter 2\app\wood\brank\lonely Kagamin\images\98.png" arWidth="96" arHeight="54" duration="0" songTitle="" songArtist="" songAlbum="" />
    <MediaItem id="97" filePath="C:\Users\Jean-Christophe\Desktop\Philippe\LOVE 7.0\Dungeon Shooter 2\app\wood\brank\lonely Kagamin\images\99.png" arWidth="96" arHeight="54" duration="0" songTitle="" songArtist="" songAlbum="" />
    <MediaItem id="98" filePath="C:\Users\Jean-Christophe\Desktop\Philippe\LOVE 7.0\Dungeon Shooter 2\app\wood\brank\lonely Kagamin\images\100.png" arWidth="96" arHeight="54" duration="0" songTitle="" songArtist="" songAlbum="" />
    <MediaItem id="99" filePath="C:\Users\Jean-Christophe\Desktop\Philippe\LOVE 7.0\Dungeon Shooter 2\app\wood\brank\lonely Kagamin\images\101.png" arWidth="96" arHeight="54" duration="0" songTitle="" songArtist="" songAlbum="" />
    <MediaItem id="100" filePath="C:\Users\Jean-Christophe\Desktop\Philippe\LOVE 7.0\Dungeon Shooter 2\app\wood\brank\lonely Kagamin\images\102.png" arWidth="96" arHeight="54" duration="0" songTitle="" songArtist="" songAlbum="" />
    <MediaItem id="101" filePath="C:\Users\Jean-Christophe\Desktop\Philippe\LOVE 7.0\Dungeon Shooter 2\app\wood\brank\lonely Kagamin\images\103.png" arWidth="96" arHeight="54" duration="0" songTitle="" songArtist="" songAlbum="" />
    <MediaItem id="102" filePath="C:\Users\Jean-Christophe\Desktop\Philippe\LOVE 7.0\Dungeon Shooter 2\app\wood\brank\lonely Kagamin\images\104.png" arWidth="96" arHeight="54" duration="0" songTitle="" songArtist="" songAlbum="" />
    <MediaItem id="103" filePath="C:\Users\Jean-Christophe\Desktop\Philippe\LOVE 7.0\Dungeon Shooter 2\app\wood\brank\lonely Kagamin\images\105.png" arWidth="96" arHeight="54" duration="0" songTitle="" songArtist="" songAlbum="" />
    <MediaItem id="104" filePath="C:\Users\Jean-Christophe\Desktop\Philippe\LOVE 7.0\Dungeon Shooter 2\app\wood\brank\lonely Kagamin\images\106.png" arWidth="96" arHeight="54" duration="0" songTitle="" songArtist="" songAlbum="" />
    <MediaItem id="105" filePath="C:\Users\Jean-Christophe\Desktop\Philippe\LOVE 7.0\Dungeon Shooter 2\app\wood\brank\lonely Kagamin\images\107.png" arWidth="96" arHeight="54" duration="0" songTitle="" songArtist="" songAlbum="" />
    <MediaItem id="106" filePath="C:\Users\Jean-Christophe\Desktop\Philippe\LOVE 7.0\Dungeon Shooter 2\app\wood\brank\lonely Kagamin\images\108.png" arWidth="96" arHeight="54" duration="0" songTitle="" songArtist="" songAlbum="" />
    <MediaItem id="107" filePath="C:\Users\Jean-Christophe\Desktop\Philippe\LOVE 7.0\Dungeon Shooter 2\app\wood\brank\lonely Kagamin\images\109.png" arWidth="96" arHeight="54" duration="0" songTitle="" songArtist="" songAlbum="" />
    <MediaItem id="108" filePath="C:\Users\Jean-Christophe\Desktop\Philippe\LOVE 7.0\Dungeon Shooter 2\app\wood\brank\lonely Kagamin\images\110.png" arWidth="96" arHeight="54" duration="0" songTitle="" songArtist="" songAlbum="" />
    <MediaItem id="109" filePath="C:\Users\Jean-Christophe\Desktop\Philippe\LOVE 7.0\Dungeon Shooter 2\app\wood\brank\lonely Kagamin\images\111.png" arWidth="96" arHeight="54" duration="0" songTitle="" songArtist="" songAlbum="" />
    <MediaItem id="110" filePath="C:\Users\Jean-Christophe\Desktop\Philippe\LOVE 7.0\Dungeon Shooter 2\app\wood\brank\lonely Kagamin\images\112.png" arWidth="96" arHeight="54" duration="0" songTitle="" songArtist="" songAlbum="" />
    <MediaItem id="111" filePath="C:\Users\Jean-Christophe\Desktop\Philippe\LOVE 7.0\Dungeon Shooter 2\app\wood\brank\lonely Kagamin\images\113.png" arWidth="96" arHeight="54" duration="0" songTitle="" songArtist="" songAlbum="" />
    <MediaItem id="112" filePath="C:\Users\Jean-Christophe\Desktop\Philippe\LOVE 7.0\Dungeon Shooter 2\app\wood\brank\lonely Kagamin\images\114.png" arWidth="96" arHeight="54" duration="0" songTitle="" songArtist="" songAlbum="" />
    <MediaItem id="113" filePath="C:\Users\Jean-Christophe\Desktop\Philippe\LOVE 7.0\Dungeon Shooter 2\app\wood\brank\lonely Kagamin\images\115.png" arWidth="96" arHeight="54" duration="0" songTitle="" songArtist="" songAlbum="" />
    <MediaItem id="114" filePath="C:\Users\Jean-Christophe\Desktop\Philippe\LOVE 7.0\Dungeon Shooter 2\app\wood\brank\lonely Kagamin\images\116.png" arWidth="96" arHeight="54" duration="0" songTitle="" songArtist="" songAlbum="" />
    <MediaItem id="115" filePath="C:\Users\Jean-Christophe\Desktop\Philippe\LOVE 7.0\Dungeon Shooter 2\app\wood\brank\lonely Kagamin\images\117.png" arWidth="1600" arHeight="900" duration="0" songTitle="" songArtist="" songAlbum="" />
    <MediaItem id="116" filePath="C:\Users\Jean-Christophe\Desktop\Philippe\LOVE 7.0\Dungeon Shooter 2\app\wood\brank\lonely Kagamin\images\118.png" arWidth="1600" arHeight="900" duration="0" songTitle="" songArtist="" songAlbum="" />
    <MediaItem id="117" filePath="C:\Users\Jean-Christophe\Desktop\Philippe\LOVE 7.0\Dungeon Shooter 2\app\wood\brank\lonely Kagamin\images\119.png" arWidth="1600" arHeight="900" duration="0" songTitle="" songArtist="" songAlbum="" />
    <MediaItem id="118" filePath="C:\Users\Jean-Christophe\Desktop\Philippe\LOVE 7.0\Dungeon Shooter 2\app\wood\brank\lonely Kagamin\images\120.png" arWidth="1600" arHeight="900" duration="0" songTitle="" songArtist="" songAlbum="" />
    <MediaItem id="119" filePath="C:\Users\Jean-Christophe\Desktop\Philippe\LOVE 7.0\Dungeon Shooter 2\app\wood\brank\lonely Kagamin\images\121.png" arWidth="1600" arHeight="900" duration="0" songTitle="" songArtist="" songAlbum="" />
    <MediaItem id="120" filePath="C:\Users\Jean-Christophe\Desktop\Philippe\LOVE 7.0\Dungeon Shooter 2\app\wood\brank\lonely Kagamin\images\122.png" arWidth="1600" arHeight="900" duration="0" songTitle="" songArtist="" songAlbum="" />
    <MediaItem id="121" filePath="C:\Users\Jean-Christophe\Desktop\Philippe\LOVE 7.0\Dungeon Shooter 2\app\wood\brank\lonely Kagamin\images\123.png" arWidth="96" arHeight="54" duration="0" songTitle="" songArtist="" songAlbum="" />
    <MediaItem id="122" filePath="C:\Users\Jean-Christophe\Desktop\Philippe\LOVE 7.0\Dungeon Shooter 2\app\wood\brank\lonely Kagamin\images\124.png" arWidth="96" arHeight="54" duration="0" songTitle="" songArtist="" songAlbum="" />
    <MediaItem id="123" filePath="C:\Users\Jean-Christophe\Desktop\Philippe\LOVE 7.0\Dungeon Shooter 2\app\wood\brank\lonely Kagamin\images\125.png" arWidth="1600" arHeight="900" duration="0" songTitle="" songArtist="" songAlbum="" />
    <MediaItem id="124" filePath="C:\Users\Jean-Christophe\Desktop\Philippe\LOVE 7.0\Dungeon Shooter 2\app\wood\brank\lonely Kagamin\images\126.png" arWidth="1600" arHeight="900" duration="0" songTitle="" songArtist="" songAlbum="" />
    <MediaItem id="125" filePath="C:\Users\Jean-Christophe\Desktop\Philippe\LOVE 7.0\Dungeon Shooter 2\app\wood\brank\lonely Kagamin\images\127.png" arWidth="1600" arHeight="900" duration="0" songTitle="" songArtist="" songAlbum="" />
    <MediaItem id="126" filePath="C:\Users\Jean-Christophe\Desktop\Philippe\LOVE 7.0\Dungeon Shooter 2\app\wood\brank\lonely Kagamin\images\128.png" arWidth="1600" arHeight="900" duration="0" songTitle="" songArtist="" songAlbum="" />
    <MediaItem id="127" filePath="C:\Users\Jean-Christophe\Desktop\Philippe\LOVE 7.0\Dungeon Shooter 2\app\wood\brank\lonely Kagamin\images\129.png" arWidth="96" arHeight="54" duration="0" songTitle="" songArtist="" songAlbum="" />
    <MediaItem id="128" filePath="C:\Users\Jean-Christophe\Desktop\Philippe\LOVE 7.0\Dungeon Shooter 2\app\wood\brank\lonely Kagamin\images\130.png" arWidth="96" arHeight="54" duration="0" songTitle="" songArtist="" songAlbum="" />
    <MediaItem id="129" filePath="C:\Users\Jean-Christophe\Desktop\Philippe\LOVE 7.0\Dungeon Shooter 2\app\wood\brank\lonely Kagamin\images\131.png" arWidth="1600" arHeight="900" duration="0" songTitle="" songArtist="" songAlbum="" />
    <MediaItem id="130" filePath="C:\Users\Jean-Christophe\Desktop\Philippe\LOVE 7.0\Dungeon Shooter 2\app\wood\brank\lonely Kagamin\images\132.png" arWidth="1600" arHeight="900" duration="0" songTitle="" songArtist="" songAlbum="" />
    <MediaItem id="131" filePath="C:\Users\Jean-Christophe\Desktop\Philippe\LOVE 7.0\Dungeon Shooter 2\app\wood\brank\lonely Kagamin\images\133.png" arWidth="1600" arHeight="900" duration="0" songTitle="" songArtist="" songAlbum="" />
    <MediaItem id="132" filePath="C:\Users\Jean-Christophe\Desktop\Philippe\LOVE 7.0\Dungeon Shooter 2\app\wood\brank\lonely Kagamin\images\134.png" arWidth="1600" arHeight="900" duration="0" songTitle="" songArtist="" songAlbum="" />
    <MediaItem id="133" filePath="C:\Users\Jean-Christophe\Desktop\Philippe\LOVE 7.0\Dungeon Shooter 2\app\wood\brank\lonely Kagamin\images\135.png" arWidth="96" arHeight="54" duration="0" songTitle="" songArtist="" songAlbum="" />
    <MediaItem id="134" filePath="C:\Users\Jean-Christophe\Desktop\Philippe\LOVE 7.0\Dungeon Shooter 2\app\wood\brank\lonely Kagamin\images\136.png" arWidth="1600" arHeight="900" duration="0" songTitle="" songArtist="" songAlbum="" />
    <MediaItem id="135" filePath="C:\Users\Jean-Christophe\Desktop\Philippe\LOVE 7.0\Dungeon Shooter 2\app\wood\brank\lonely Kagamin\images\137.png" arWidth="1600" arHeight="900" duration="0" songTitle="" songArtist="" songAlbum="" />
    <MediaItem id="136" filePath="C:\Users\Jean-Christophe\Desktop\Philippe\LOVE 7.0\Dungeon Shooter 2\app\wood\brank\lonely Kagamin\images\138.png" arWidth="1600" arHeight="900" duration="0" songTitle="" songArtist="" songAlbum="" />
    <MediaItem id="137" filePath="C:\Users\Jean-Christophe\Desktop\Philippe\LOVE 7.0\Dungeon Shooter 2\app\wood\brank\lonely Kagamin\images\139.png" arWidth="1600" arHeight="900" duration="0" songTitle="" songArtist="" songAlbum="" />
    <MediaItem id="138" filePath="C:\Users\Jean-Christophe\Desktop\Philippe\LOVE 7.0\Dungeon Shooter 2\app\wood\brank\lonely Kagamin\images\140.png" arWidth="1600" arHeight="900" duration="0" songTitle="" songArtist="" songAlbum="" />
    <MediaItem id="139" filePath="C:\Users\Jean-Christophe\Desktop\Philippe\LOVE 7.0\Dungeon Shooter 2\app\wood\brank\lonely Kagamin\images\141.png" arWidth="1600" arHeight="900" duration="0" songTitle="" songArtist="" songAlbum="" />
    <MediaItem id="140" filePath="C:\Users\Jean-Christophe\Desktop\Philippe\LOVE 7.0\Dungeon Shooter 2\app\wood\brank\lonely Kagamin\images\142.png" arWidth="1600" arHeight="900" duration="0" songTitle="" songArtist="" songAlbum="" />
    <MediaItem id="141" filePath="C:\Users\Jean-Christophe\Desktop\Philippe\LOVE 7.0\Dungeon Shooter 2\app\wood\brank\lonely Kagamin\images\143.png" arWidth="96" arHeight="54" duration="0" songTitle="" songArtist="" songAlbum="" />
    <MediaItem id="142" filePath="C:\Users\Jean-Christophe\Desktop\Philippe\LOVE 7.0\Dungeon Shooter 2\app\wood\brank\lonely Kagamin\images\144.png" arWidth="96" arHeight="54" duration="0" songTitle="" songArtist="" songAlbum="" />
    <MediaItem id="143" filePath="C:\Users\Jean-Christophe\Desktop\Philippe\LOVE 7.0\Dungeon Shooter 2\app\wood\brank\lonely Kagamin\images\145.png" arWidth="96" arHeight="54" duration="0" songTitle="" songArtist="" songAlbum="" />
    <MediaItem id="144" filePath="C:\Users\Jean-Christophe\Desktop\Philippe\LOVE 7.0\Dungeon Shooter 2\app\wood\brank\lonely Kagamin\images\146.png" arWidth="96" arHeight="54" duration="0" songTitle="" songArtist="" songAlbum="" />
    <MediaItem id="145" filePath="C:\Users\Jean-Christophe\Desktop\Philippe\LOVE 7.0\Dungeon Shooter 2\app\wood\brank\lonely Kagamin\images\147.png" arWidth="256" arHeight="144" duration="0" songTitle="" songArtist="" songAlbum="" />
    <MediaItem id="146" filePath="C:\Users\Jean-Christophe\Desktop\Philippe\LOVE 7.0\Dungeon Shooter 2\app\wood\brank\lonely Kagamin\images\148.png" arWidth="96" arHeight="54" duration="0" songTitle="" songArtist="" songAlbum="" />
    <MediaItem id="147" filePath="C:\Users\Jean-Christophe\Desktop\Philippe\LOVE 7.0\Dungeon Shooter 2\app\wood\brank\lonely Kagamin\images\149.png" arWidth="96" arHeight="54" duration="0" songTitle="" songArtist="" songAlbum="" />
    <MediaItem id="148" filePath="C:\Users\Jean-Christophe\Desktop\Philippe\LOVE 7.0\Dungeon Shooter 2\app\wood\brank\lonely Kagamin\images\150.png" arWidth="96" arHeight="54" duration="0" songTitle="" songArtist="" songAlbum="" />
    <MediaItem id="149" filePath="C:\Users\Jean-Christophe\Desktop\Philippe\LOVE 7.0\Dungeon Shooter 2\app\wood\brank\lonely Kagamin\images\151.png" arWidth="96" arHeight="54" duration="0" songTitle="" songArtist="" songAlbum="" />
    <MediaItem id="150" filePath="C:\Users\Jean-Christophe\Desktop\Philippe\LOVE 7.0\Dungeon Shooter 2\app\wood\brank\lonely Kagamin\images\152.png" arWidth="96" arHeight="54" duration="0" songTitle="" songArtist="" songAlbum="" />
    <MediaItem id="151" filePath="C:\Users\Jean-Christophe\Desktop\Philippe\LOVE 7.0\Dungeon Shooter 2\app\wood\brank\lonely Kagamin\images\153.png" arWidth="96" arHeight="54" duration="0" songTitle="" songArtist="" songAlbum="" />
    <MediaItem id="152" filePath="C:\Users\Jean-Christophe\Desktop\Philippe\LOVE 7.0\Dungeon Shooter 2\app\wood\brank\lonely Kagamin\images\154.png" arWidth="96" arHeight="54" duration="0" songTitle="" songArtist="" songAlbum="" />
    <MediaItem id="153" filePath="C:\Users\Jean-Christophe\Desktop\Philippe\LOVE 7.0\Dungeon Shooter 2\app\wood\brank\lonely Kagamin\images\155.png" arWidth="96" arHeight="54" duration="0" songTitle="" songArtist="" songAlbum="" />
    <MediaItem id="154" filePath="C:\Users\Jean-Christophe\Desktop\Philippe\LOVE 7.0\Dungeon Shooter 2\app\wood\brank\lonely Kagamin\images\156.png" arWidth="96" arHeight="54" duration="0" songTitle="" songArtist="" songAlbum="" />
    <MediaItem id="155" filePath="C:\Users\Jean-Christophe\Desktop\Philippe\LOVE 7.0\Dungeon Shooter 2\app\wood\brank\lonely Kagamin\images\157.png" arWidth="96" arHeight="54" duration="0" songTitle="" songArtist="" songAlbum="" />
    <MediaItem id="156" filePath="C:\Users\Jean-Christophe\Desktop\Philippe\LOVE 7.0\Dungeon Shooter 2\app\wood\brank\lonely Kagamin\images\158.png" arWidth="96" arHeight="54" duration="0" songTitle="" songArtist="" songAlbum="" />
    <MediaItem id="157" filePath="C:\Users\Jean-Christophe\Desktop\Philippe\LOVE 7.0\Dungeon Shooter 2\app\wood\brank\lonely Kagamin\images\159.png" arWidth="96" arHeight="54" duration="0" songTitle="" songArtist="" songAlbum="" />
    <MediaItem id="158" filePath="C:\Users\Jean-Christophe\Desktop\Philippe\LOVE 7.0\Dungeon Shooter 2\app\wood\brank\lonely Kagamin\images\160.png" arWidth="96" arHeight="54" duration="0" songTitle="" songArtist="" songAlbum="" />
    <MediaItem id="159" filePath="C:\Users\Jean-Christophe\Desktop\Philippe\LOVE 7.0\Dungeon Shooter 2\app\wood\brank\lonely Kagamin\images\161.png" arWidth="96" arHeight="54" duration="0" songTitle="" songArtist="" songAlbum="" />
    <MediaItem id="160" filePath="C:\Users\Jean-Christophe\Desktop\Philippe\LOVE 7.0\Dungeon Shooter 2\app\wood\brank\lonely Kagamin\images\162.png" arWidth="96" arHeight="54" duration="0" songTitle="" songArtist="" songAlbum="" />
    <MediaItem id="161" filePath="C:\Users\Jean-Christophe\Desktop\Philippe\LOVE 7.0\Dungeon Shooter 2\app\wood\brank\lonely Kagamin\images\163.png" arWidth="96" arHeight="54" duration="0" songTitle="" songArtist="" songAlbum="" />
    <MediaItem id="162" filePath="C:\Users\Jean-Christophe\Desktop\Philippe\LOVE 7.0\Dungeon Shooter 2\app\wood\brank\lonely Kagamin\images\164.png" arWidth="96" arHeight="54" duration="0" songTitle="" songArtist="" songAlbum="" />
  </MediaItems>
  <Extents>
    <ImageClip extentID="163" gapBefore="0" mediaItemID="159" duration="4">
      <Effects />
      <Transitions />
      <BoundProperties>
        <BoundPropertyInt Name="rotateStepNinety" Value="0" />
      </BoundProperties>
    </ImageClip>
    <ImageClip extentID="164" gapBefore="0" mediaItemID="160" duration="4.5">
      <Effects />
      <Transitions />
      <BoundProperties>
        <BoundPropertyInt Name="rotateStepNinety" Value="0" />
      </BoundProperties>
    </ImageClip>
    <ImageClip extentID="165" gapBefore="0" mediaItemID="161" duration="4">
      <Effects />
      <Transitions />
      <BoundProperties>
        <BoundPropertyInt Name="rotateStepNinety" Value="0" />
      </BoundProperties>
    </ImageClip>
    <ImageClip extentID="166" gapBefore="0" mediaItemID="162" duration="4">
      <Effects />
      <Transitions />
      <BoundProperties>
        <BoundPropertyInt Name="rotateStepNinety" Value="0" />
      </BoundProperties>
    </ImageClip>
    <ImageClip extentID="167" gapBefore="0" mediaItemID="163" duration="4">
      <Effects />
      <Transitions />
      <BoundProperties>
        <BoundPropertyInt Name="rotateStepNinety" Value="0" />
      </BoundProperties>
    </ImageClip>
    <ImageClip extentID="168" gapBefore="0" mediaItemID="164" duration="3">
      <Effects />
      <Transitions />
      <BoundProperties>
        <BoundPropertyInt Name="rotateStepNinety" Value="0" />
      </BoundProperties>
    </ImageClip>
    <ImageClip extentID="5" gapBefore="0" mediaItemID="1" duration="4">
      <Effects />
      <Transitions />
      <BoundProperties>
        <BoundPropertyInt Name="rotateStepNinety" Value="0" />
      </BoundProperties>
    </ImageClip>
    <ImageClip extentID="169" gapBefore="0" mediaItemID="165" duration="3">
      <Effects />
      <Transitions />
      <BoundProperties>
        <BoundPropertyInt Name="rotateStepNinety" Value="0" />
      </BoundProperties>
    </ImageClip>
    <ImageClip extentID="6" gapBefore="0" mediaItemID="2" duration="4">
      <Effects />
      <Transitions />
      <BoundProperties>
        <BoundPropertyInt Name="rotateStepNinety" Value="0" />
      </BoundProperties>
    </ImageClip>
    <ImageClip extentID="170" gapBefore="0" mediaItemID="166" duration="4">
      <Effects />
      <Transitions />
      <BoundProperties>
        <BoundPropertyInt Name="rotateStepNinety" Value="0" />
      </BoundProperties>
    </ImageClip>
    <ImageClip extentID="7" gapBefore="0" mediaItemID="3" duration="4">
      <Effects />
      <Transitions />
      <BoundProperties>
        <BoundPropertyInt Name="rotateStepNinety" Value="0" />
      </BoundProperties>
    </ImageClip>
    <ImageClip extentID="171" gapBefore="0" mediaItemID="167" duration="5">
      <Effects />
      <Transitions />
      <BoundProperties>
        <BoundPropertyInt Name="rotateStepNinety" Value="0" />
      </BoundProperties>
    </ImageClip>
    <ImageClip extentID="8" gapBefore="0" mediaItemID="4" duration="4">
      <Effects />
      <Transitions />
      <BoundProperties>
        <BoundPropertyInt Name="rotateStepNinety" Value="0" />
      </BoundProperties>
    </ImageClip>
    <ImageClip extentID="172" gapBefore="0" mediaItemID="168" duration="3">
      <Effects />
      <Transitions />
      <BoundProperties>
        <BoundPropertyInt Name="rotateStepNinety" Value="0" />
      </BoundProperties>
    </ImageClip>
    <ImageClip extentID="9" gapBefore="0" mediaItemID="5" duration="4">
      <Effects />
      <Transitions />
      <BoundProperties>
        <BoundPropertyInt Name="rotateStepNinety" Value="0" />
      </BoundProperties>
    </ImageClip>
    <ImageClip extentID="173" gapBefore="0" mediaItemID="169" duration="4">
      <Effects />
      <Transitions />
      <BoundProperties>
        <BoundPropertyInt Name="rotateStepNinety" Value="0" />
      </BoundProperties>
    </ImageClip>
    <ImageClip extentID="10" gapBefore="0" mediaItemID="6" duration="4">
      <Effects />
      <Transitions />
      <BoundProperties>
        <BoundPropertyInt Name="rotateStepNinety" Value="0" />
      </BoundProperties>
    </ImageClip>
    <ImageClip extentID="174" gapBefore="0" mediaItemID="170" duration="3">
      <Effects />
      <Transitions />
      <BoundProperties>
        <BoundPropertyInt Name="rotateStepNinety" Value="0" />
      </BoundProperties>
    </ImageClip>
    <ImageClip extentID="11" gapBefore="0" mediaItemID="7" duration="4">
      <Effects />
      <Transitions />
      <BoundProperties>
        <BoundPropertyInt Name="rotateStepNinety" Value="0" />
      </BoundProperties>
    </ImageClip>
    <ImageClip extentID="175" gapBefore="0" mediaItemID="171" duration="6">
      <Effects />
      <Transitions />
      <BoundProperties>
        <BoundPropertyInt Name="rotateStepNinety" Value="0" />
      </BoundProperties>
    </ImageClip>
    <ImageClip extentID="12" gapBefore="0" mediaItemID="8" duration="4">
      <Effects />
      <Transitions />
      <BoundProperties>
        <BoundPropertyInt Name="rotateStepNinety" Value="0" />
      </BoundProperties>
    </ImageClip>
    <ImageClip extentID="176" gapBefore="0" mediaItemID="172" duration="3">
      <Effects />
      <Transitions />
      <BoundProperties>
        <BoundPropertyInt Name="rotateStepNinety" Value="0" />
      </BoundProperties>
    </ImageClip>
    <ImageClip extentID="13" gapBefore="0" mediaItemID="9" duration="4">
      <Effects />
      <Transitions />
      <BoundProperties>
        <BoundPropertyInt Name="rotateStepNinety" Value="0" />
      </BoundProperties>
    </ImageClip>
    <ImageClip extentID="177" gapBefore="0" mediaItemID="173" duration="3">
      <Effects />
      <Transitions />
      <BoundProperties>
        <BoundPropertyInt Name="rotateStepNinety" Value="0" />
      </BoundProperties>
    </ImageClip>
    <ImageClip extentID="14" gapBefore="0" mediaItemID="10" duration="4">
      <Effects />
      <Transitions />
      <BoundProperties>
        <BoundPropertyInt Name="rotateStepNinety" Value="0" />
      </BoundProperties>
    </ImageClip>
    <ImageClip extentID="178" gapBefore="0" mediaItemID="174" duration="3">
      <Effects />
      <Transitions />
      <BoundProperties>
        <BoundPropertyInt Name="rotateStepNinety" Value="0" />
      </BoundProperties>
    </ImageClip>
    <ImageClip extentID="15" gapBefore="0" mediaItemID="11" duration="4">
      <Effects />
      <Transitions />
      <BoundProperties>
        <BoundPropertyInt Name="rotateStepNinety" Value="0" />
      </BoundProperties>
    </ImageClip>
    <ImageClip extentID="179" gapBefore="0" mediaItemID="175" duration="3">
      <Effects />
      <Transitions />
      <BoundProperties>
        <BoundPropertyInt Name="rotateStepNinety" Value="0" />
      </BoundProperties>
    </ImageClip>
    <ImageClip extentID="16" gapBefore="0" mediaItemID="12" duration="4">
      <Effects />
      <Transitions />
      <BoundProperties>
        <BoundPropertyInt Name="rotateStepNinety" Value="0" />
      </BoundProperties>
    </ImageClip>
    <ImageClip extentID="180" gapBefore="0" mediaItemID="176" duration="4">
      <Effects />
      <Transitions />
      <BoundProperties>
        <BoundPropertyInt Name="rotateStepNinety" Value="0" />
      </BoundProperties>
    </ImageClip>
    <ImageClip extentID="17" gapBefore="0" mediaItemID="13" duration="4">
      <Effects />
      <Transitions />
      <BoundProperties>
        <BoundPropertyInt Name="rotateStepNinety" Value="0" />
      </BoundProperties>
    </ImageClip>
    <ImageClip extentID="181" gapBefore="0" mediaItemID="177" duration="4">
      <Effects />
      <Transitions />
      <BoundProperties>
        <BoundPropertyInt Name="rotateStepNinety" Value="0" />
      </BoundProperties>
    </ImageClip>
    <ImageClip extentID="18" gapBefore="0" mediaItemID="14" duration="4">
      <Effects />
      <Transitions />
      <BoundProperties>
        <BoundPropertyInt Name="rotateStepNinety" Value="0" />
      </BoundProperties>
    </ImageClip>
    <ImageClip extentID="182" gapBefore="0" mediaItemID="178" duration="4">
      <Effects />
      <Transitions />
      <BoundProperties>
        <BoundPropertyInt Name="rotateStepNinety" Value="0" />
      </BoundProperties>
    </ImageClip>
    <ImageClip extentID="19" gapBefore="0" mediaItemID="15" duration="4">
      <Effects />
      <Transitions />
      <BoundProperties>
        <BoundPropertyInt Name="rotateStepNinety" Value="0" />
      </BoundProperties>
    </ImageClip>
    <ImageClip extentID="183" gapBefore="0" mediaItemID="179" duration="3">
      <Effects />
      <Transitions />
      <BoundProperties>
        <BoundPropertyInt Name="rotateStepNinety" Value="0" />
      </BoundProperties>
    </ImageClip>
    <ImageClip extentID="20" gapBefore="0" mediaItemID="16" duration="4">
      <Effects />
      <Transitions />
      <BoundProperties>
        <BoundPropertyInt Name="rotateStepNinety" Value="0" />
      </BoundProperties>
    </ImageClip>
    <ImageClip extentID="184" gapBefore="0" mediaItemID="180" duration="3">
      <Effects />
      <Transitions />
      <BoundProperties>
        <BoundPropertyInt Name="rotateStepNinety" Value="0" />
      </BoundProperties>
    </ImageClip>
    <ImageClip extentID="21" gapBefore="0" mediaItemID="17" duration="4">
      <Effects />
      <Transitions />
      <BoundProperties>
        <BoundPropertyInt Name="rotateStepNinety" Value="0" />
      </BoundProperties>
    </ImageClip>
    <ImageClip extentID="185" gapBefore="0" mediaItemID="181" duration="4">
      <Effects />
      <Transitions />
      <BoundProperties>
        <BoundPropertyInt Name="rotateStepNinety" Value="0" />
      </BoundProperties>
    </ImageClip>
    <ImageClip extentID="22" gapBefore="0" mediaItemID="18" duration="4">
      <Effects />
      <Transitions />
      <BoundProperties>
        <BoundPropertyInt Name="rotateStepNinety" Value="0" />
      </BoundProperties>
    </ImageClip>
    <ImageClip extentID="186" gapBefore="0" mediaItemID="182" duration="8">
      <Effects />
      <Transitions />
      <BoundProperties>
        <BoundPropertyInt Name="rotateStepNinety" Value="0" />
      </BoundProperties>
    </ImageClip>
    <ImageClip extentID="23" gapBefore="0" mediaItemID="19" duration="4">
      <Effects />
      <Transitions />
      <BoundProperties>
        <BoundPropertyInt Name="rotateStepNinety" Value="0" />
      </BoundProperties>
    </ImageClip>
    <ImageClip extentID="187" gapBefore="0" mediaItemID="183" duration="4">
      <Effects />
      <Transitions />
      <BoundProperties>
        <BoundPropertyInt Name="rotateStepNinety" Value="0" />
      </BoundProperties>
    </ImageClip>
    <ImageClip extentID="24" gapBefore="0" mediaItemID="20" duration="4">
      <Effects />
      <Transitions />
      <BoundProperties>
        <BoundPropertyInt Name="rotateStepNinety" Value="0" />
      </BoundProperties>
    </ImageClip>
    <ImageClip extentID="188" gapBefore="0" mediaItemID="184" duration="3">
      <Effects />
      <Transitions>
        <ShapeEffect effectTemplateID="CrossfadeTransitionTemplate" duration="2">
          <BoundProperties />
        </ShapeEffect>
      </Transitions>
      <BoundProperties>
        <BoundPropertyInt Name="rotateStepNinety" Value="0" />
      </BoundProperties>
    </ImageClip>
    <ImageClip extentID="25" gapBefore="0" mediaItemID="21" duration="4">
      <Effects />
      <Transitions />
      <BoundProperties>
        <BoundPropertyInt Name="rotateStepNinety" Value="0" />
      </BoundProperties>
    </ImageClip>
    <ImageClip extentID="189" gapBefore="0" mediaItemID="185" duration="4">
      <Effects />
      <Transitions>
        <ShapeEffect effectTemplateID="CrossfadeTransitionTemplate" duration="1.5">
          <BoundProperties />
        </ShapeEffect>
      </Transitions>
      <BoundProperties>
        <BoundPropertyInt Name="rotateStepNinety" Value="0" />
      </BoundProperties>
    </ImageClip>
    <ImageClip extentID="26" gapBefore="0" mediaItemID="22" duration="4">
      <Effects />
      <Transitions />
      <BoundProperties>
        <BoundPropertyInt Name="rotateStepNinety" Value="0" />
      </BoundProperties>
    </ImageClip>
    <ImageClip extentID="190" gapBefore="0" mediaItemID="186" duration="3">
      <Effects />
      <Transitions />
      <BoundProperties>
        <BoundPropertyInt Name="rotateStepNinety" Value="0" />
      </BoundProperties>
    </ImageClip>
    <ImageClip extentID="27" gapBefore="0" mediaItemID="23" duration="4.5">
      <Effects />
      <Transitions />
      <BoundProperties>
        <BoundPropertyInt Name="rotateStepNinety" Value="0" />
      </BoundProperties>
    </ImageClip>
    <ImageClip extentID="191" gapBefore="0" mediaItemID="187" duration="3">
      <Effects />
      <Transitions />
      <BoundProperties>
        <BoundPropertyInt Name="rotateStepNinety" Value="0" />
      </BoundProperties>
    </ImageClip>
    <ImageClip extentID="28" gapBefore="0" mediaItemID="24" duration="4">
      <Effects />
      <Transitions />
      <BoundProperties>
        <BoundPropertyInt Name="rotateStepNinety" Value="0" />
      </BoundProperties>
    </ImageClip>
    <ImageClip extentID="192" gapBefore="0" mediaItemID="188" duration="3">
      <Effects />
      <Transitions />
      <BoundProperties>
        <BoundPropertyInt Name="rotateStepNinety" Value="0" />
      </BoundProperties>
    </ImageClip>
    <ImageClip extentID="29" gapBefore="0" mediaItemID="25" duration="4">
      <Effects />
      <Transitions />
      <BoundProperties>
        <BoundPropertyInt Name="rotateStepNinety" Value="0" />
      </BoundProperties>
    </ImageClip>
    <ImageClip extentID="193" gapBefore="0" mediaItemID="189" duration="3">
      <Effects />
      <Transitions />
      <BoundProperties>
        <BoundPropertyInt Name="rotateStepNinety" Value="0" />
      </BoundProperties>
    </ImageClip>
    <ImageClip extentID="30" gapBefore="0" mediaItemID="26" duration="4">
      <Effects />
      <Transitions />
      <BoundProperties>
        <BoundPropertyInt Name="rotateStepNinety" Value="0" />
      </BoundProperties>
    </ImageClip>
    <ImageClip extentID="194" gapBefore="0" mediaItemID="190" duration="3">
      <Effects />
      <Transitions />
      <BoundProperties>
        <BoundPropertyInt Name="rotateStepNinety" Value="0" />
      </BoundProperties>
    </ImageClip>
    <ImageClip extentID="31" gapBefore="0" mediaItemID="27" duration="4">
      <Effects />
      <Transitions />
      <BoundProperties>
        <BoundPropertyInt Name="rotateStepNinety" Value="0" />
      </BoundProperties>
    </ImageClip>
    <ImageClip extentID="195" gapBefore="0" mediaItemID="191" duration="3">
      <Effects />
      <Transitions />
      <BoundProperties>
        <BoundPropertyInt Name="rotateStepNinety" Value="0" />
      </BoundProperties>
    </ImageClip>
    <ImageClip extentID="32" gapBefore="0" mediaItemID="28" duration="4">
      <Effects />
      <Transitions />
      <BoundProperties>
        <BoundPropertyInt Name="rotateStepNinety" Value="0" />
      </BoundProperties>
    </ImageClip>
    <ImageClip extentID="196" gapBefore="0" mediaItemID="192" duration="4">
      <Effects />
      <Transitions />
      <BoundProperties>
        <BoundPropertyInt Name="rotateStepNinety" Value="0" />
      </BoundProperties>
    </ImageClip>
    <ImageClip extentID="33" gapBefore="0" mediaItemID="29" duration="4">
      <Effects />
      <Transitions />
      <BoundProperties>
        <BoundPropertyInt Name="rotateStepNinety" Value="0" />
      </BoundProperties>
    </ImageClip>
    <ImageClip extentID="197" gapBefore="0" mediaItemID="193" duration="3">
      <Effects />
      <Transitions />
      <BoundProperties>
        <BoundPropertyInt Name="rotateStepNinety" Value="0" />
      </BoundProperties>
    </ImageClip>
    <ImageClip extentID="198" gapBefore="0" mediaItemID="194" duration="3">
      <Effects />
      <Transitions />
      <BoundProperties>
        <BoundPropertyInt Name="rotateStepNinety" Value="0" />
      </BoundProperties>
    </ImageClip>
    <ImageClip extentID="35" gapBefore="0" mediaItemID="31" duration="4">
      <Effects />
      <Transitions />
      <BoundProperties>
        <BoundPropertyInt Name="rotateStepNinety" Value="0" />
      </BoundProperties>
    </ImageClip>
    <ImageClip extentID="199" gapBefore="0" mediaItemID="195" duration="4">
      <Effects />
      <Transitions />
      <BoundProperties>
        <BoundPropertyInt Name="rotateStepNinety" Value="0" />
      </BoundProperties>
    </ImageClip>
    <ImageClip extentID="36" gapBefore="0" mediaItemID="32" duration="4">
      <Effects />
      <Transitions />
      <BoundProperties>
        <BoundPropertyInt Name="rotateStepNinety" Value="0" />
      </BoundProperties>
    </ImageClip>
    <ImageClip extentID="200" gapBefore="0" mediaItemID="196" duration="5">
      <Effects />
      <Transitions />
      <BoundProperties>
        <BoundPropertyInt Name="rotateStepNinety" Value="0" />
      </BoundProperties>
    </ImageClip>
    <ImageClip extentID="37" gapBefore="0" mediaItemID="33" duration="4">
      <Effects />
      <Transitions />
      <BoundProperties>
        <BoundPropertyInt Name="rotateStepNinety" Value="0" />
      </BoundProperties>
    </ImageClip>
    <ImageClip extentID="201" gapBefore="0" mediaItemID="197" duration="3">
      <Effects />
      <Transitions>
        <ShapeEffect effectTemplateID="CrossfadeTransitionTemplate" duration="2">
          <BoundProperties />
        </ShapeEffect>
      </Transitions>
      <BoundProperties>
        <BoundPropertyInt Name="rotateStepNinety" Value="0" />
      </BoundProperties>
    </ImageClip>
    <ImageClip extentID="38" gapBefore="0" mediaItemID="34" duration="4">
      <Effects />
      <Transitions />
      <BoundProperties>
        <BoundPropertyInt Name="rotateStepNinety" Value="0" />
      </BoundProperties>
    </ImageClip>
    <ImageClip extentID="202" gapBefore="0" mediaItemID="198" duration="4">
      <Effects />
      <Transitions>
        <ShapeEffect effectTemplateID="CrossfadeTransitionTemplate" duration="1">
          <BoundProperties />
        </ShapeEffect>
      </Transitions>
      <BoundProperties>
        <BoundPropertyInt Name="rotateStepNinety" Value="0" />
      </BoundProperties>
    </ImageClip>
    <ImageClip extentID="39" gapBefore="0" mediaItemID="35" duration="4">
      <Effects />
      <Transitions />
      <BoundProperties>
        <BoundPropertyInt Name="rotateStepNinety" Value="0" />
      </BoundProperties>
    </ImageClip>
    <ImageClip extentID="203" gapBefore="0" mediaItemID="199" duration="3">
      <Effects />
      <Transitions />
      <BoundProperties>
        <BoundPropertyInt Name="rotateStepNinety" Value="0" />
      </BoundProperties>
    </ImageClip>
    <ImageClip extentID="40" gapBefore="0" mediaItemID="36" duration="4.5">
      <Effects />
      <Transitions />
      <BoundProperties>
        <BoundPropertyInt Name="rotateStepNinety" Value="0" />
      </BoundProperties>
    </ImageClip>
    <ImageClip extentID="204" gapBefore="0" mediaItemID="200" duration="3">
      <Effects />
      <Transitions />
      <BoundProperties>
        <BoundPropertyInt Name="rotateStepNinety" Value="0" />
      </BoundProperties>
    </ImageClip>
    <ImageClip extentID="41" gapBefore="0" mediaItemID="37" duration="4">
      <Effects />
      <Transitions />
      <BoundProperties>
        <BoundPropertyInt Name="rotateStepNinety" Value="0" />
      </BoundProperties>
    </ImageClip>
    <ImageClip extentID="205" gapBefore="0" mediaItemID="201" duration="3">
      <Effects />
      <Transitions />
      <BoundProperties>
        <BoundPropertyInt Name="rotateStepNinety" Value="0" />
      </BoundProperties>
    </ImageClip>
    <ImageClip extentID="42" gapBefore="0" mediaItemID="38" duration="6">
      <Effects />
      <Transitions />
      <BoundProperties>
        <BoundPropertyInt Name="rotateStepNinety" Value="0" />
      </BoundProperties>
    </ImageClip>
    <ImageClip extentID="206" gapBefore="0" mediaItemID="202" duration="4">
      <Effects />
      <Transitions />
      <BoundProperties>
        <BoundPropertyInt Name="rotateStepNinety" Value="0" />
      </BoundProperties>
    </ImageClip>
    <ImageClip extentID="43" gapBefore="0" mediaItemID="39" duration="5">
      <Effects />
      <Transitions />
      <BoundProperties>
        <BoundPropertyInt Name="rotateStepNinety" Value="0" />
      </BoundProperties>
    </ImageClip>
    <ImageClip extentID="207" gapBefore="0" mediaItemID="203" duration="4">
      <Effects />
      <Transitions />
      <BoundProperties>
        <BoundPropertyInt Name="rotateStepNinety" Value="0" />
      </BoundProperties>
    </ImageClip>
    <ImageClip extentID="44" gapBefore="0" mediaItemID="40" duration="5">
      <Effects />
      <Transitions />
      <BoundProperties>
        <BoundPropertyInt Name="rotateStepNinety" Value="0" />
      </BoundProperties>
    </ImageClip>
    <ImageClip extentID="208" gapBefore="0" mediaItemID="204" duration="4">
      <Effects />
      <Transitions />
      <BoundProperties>
        <BoundPropertyInt Name="rotateStepNinety" Value="0" />
      </BoundProperties>
    </ImageClip>
    <ImageClip extentID="45" gapBefore="0" mediaItemID="41" duration="6">
      <Effects />
      <Transitions />
      <BoundProperties>
        <BoundPropertyInt Name="rotateStepNinety" Value="0" />
      </BoundProperties>
    </ImageClip>
    <ImageClip extentID="209" gapBefore="0" mediaItemID="145" duration="8">
      <Effects />
      <Transitions />
      <BoundProperties>
        <BoundPropertyInt Name="rotateStepNinety" Value="0" />
      </BoundProperties>
    </ImageClip>
    <ImageClip extentID="46" gapBefore="0" mediaItemID="42" duration="3">
      <Effects />
      <Transitions />
      <BoundProperties>
        <BoundPropertyInt Name="rotateStepNinety" Value="0" />
      </BoundProperties>
    </ImageClip>
    <ImageClip extentID="210" gapBefore="0" mediaItemID="206" duration="4">
      <Effects />
      <Transitions>
        <ShapeEffect effectTemplateID="CrossfadeTransitionTemplate" duration="1">
          <BoundProperties />
        </ShapeEffect>
      </Transitions>
      <BoundProperties>
        <BoundPropertyInt Name="rotateStepNinety" Value="0" />
      </BoundProperties>
    </ImageClip>
    <ImageClip extentID="47" gapBefore="0" mediaItemID="43" duration="4">
      <Effects />
      <Transitions />
      <BoundProperties>
        <BoundPropertyInt Name="rotateStepNinety" Value="0" />
      </BoundProperties>
    </ImageClip>
    <ImageClip extentID="211" gapBefore="0" mediaItemID="207" duration="4">
      <Effects />
      <Transitions />
      <BoundProperties>
        <BoundPropertyInt Name="rotateStepNinety" Value="0" />
      </BoundProperties>
    </ImageClip>
    <ImageClip extentID="48" gapBefore="0" mediaItemID="44" duration="4">
      <Effects />
      <Transitions />
      <BoundProperties>
        <BoundPropertyInt Name="rotateStepNinety" Value="0" />
      </BoundProperties>
    </ImageClip>
    <ImageClip extentID="49" gapBefore="0" mediaItemID="45" duration="4">
      <Effects />
      <Transitions />
      <BoundProperties>
        <BoundPropertyInt Name="rotateStepNinety" Value="0" />
      </BoundProperties>
    </ImageClip>
    <ImageClip extentID="212" gapBefore="0" mediaItemID="208" duration="4">
      <Effects />
      <Transitions />
      <BoundProperties>
        <BoundPropertyInt Name="rotateStepNinety" Value="0" />
      </BoundProperties>
    </ImageClip>
    <ImageClip extentID="50" gapBefore="0" mediaItemID="46" duration="4">
      <Effects />
      <Transitions />
      <BoundProperties>
        <BoundPropertyInt Name="rotateStepNinety" Value="0" />
      </BoundProperties>
    </ImageClip>
    <ImageClip extentID="213" gapBefore="0" mediaItemID="209" duration="3">
      <Effects />
      <Transitions />
      <BoundProperties>
        <BoundPropertyInt Name="rotateStepNinety" Value="0" />
      </BoundProperties>
    </ImageClip>
    <ImageClip extentID="51" gapBefore="0" mediaItemID="47" duration="3">
      <Effects />
      <Transitions />
      <BoundProperties>
        <BoundPropertyInt Name="rotateStepNinety" Value="0" />
      </BoundProperties>
    </ImageClip>
    <ImageClip extentID="214" gapBefore="0" mediaItemID="210" duration="3">
      <Effects />
      <Transitions />
      <BoundProperties>
        <BoundPropertyInt Name="rotateStepNinety" Value="0" />
      </BoundProperties>
    </ImageClip>
    <ImageClip extentID="52" gapBefore="0" mediaItemID="48" duration="3.5">
      <Effects />
      <Transitions />
      <BoundProperties>
        <BoundPropertyInt Name="rotateStepNinety" Value="0" />
      </BoundProperties>
    </ImageClip>
    <ImageClip extentID="215" gapBefore="0" mediaItemID="211" duration="4">
      <Effects />
      <Transitions />
      <BoundProperties>
        <BoundPropertyInt Name="rotateStepNinety" Value="0" />
      </BoundProperties>
    </ImageClip>
    <ImageClip extentID="216" gapBefore="0" mediaItemID="212" duration="3">
      <Effects />
      <Transitions />
      <BoundProperties>
        <BoundPropertyInt Name="rotateStepNinety" Value="0" />
      </BoundProperties>
    </ImageClip>
    <ImageClip extentID="53" gapBefore="0" mediaItemID="49" duration="3.5">
      <Effects />
      <Transitions />
      <BoundProperties>
        <BoundPropertyInt Name="rotateStepNinety" Value="0" />
      </BoundProperties>
    </ImageClip>
    <ImageClip extentID="217" gapBefore="0" mediaItemID="213" duration="5">
      <Effects />
      <Transitions />
      <BoundProperties>
        <BoundPropertyInt Name="rotateStepNinety" Value="0" />
      </BoundProperties>
    </ImageClip>
    <ImageClip extentID="54" gapBefore="0" mediaItemID="50" duration="4">
      <Effects />
      <Transitions />
      <BoundProperties>
        <BoundPropertyInt Name="rotateStepNinety" Value="0" />
      </BoundProperties>
    </ImageClip>
    <ImageClip extentID="218" gapBefore="0" mediaItemID="214" duration="5">
      <Effects />
      <Transitions />
      <BoundProperties>
        <BoundPropertyInt Name="rotateStepNinety" Value="0" />
      </BoundProperties>
    </ImageClip>
    <ImageClip extentID="55" gapBefore="0" mediaItemID="51" duration="3">
      <Effects />
      <Transitions />
      <BoundProperties>
        <BoundPropertyInt Name="rotateStepNinety" Value="0" />
      </BoundProperties>
    </ImageClip>
    <ImageClip extentID="219" gapBefore="0" mediaItemID="215" duration="4">
      <Effects />
      <Transitions>
        <ShapeEffect effectTemplateID="CrossfadeTransitionTemplate" duration="1">
          <BoundProperties />
        </ShapeEffect>
      </Transitions>
      <BoundProperties>
        <BoundPropertyInt Name="rotateStepNinety" Value="0" />
      </BoundProperties>
    </ImageClip>
    <ImageClip extentID="56" gapBefore="0" mediaItemID="52" duration="3">
      <Effects />
      <Transitions />
      <BoundProperties>
        <BoundPropertyInt Name="rotateStepNinety" Value="0" />
      </BoundProperties>
    </ImageClip>
    <ImageClip extentID="220" gapBefore="0" mediaItemID="216" duration="12.5">
      <Effects />
      <Transitions>
        <ShapeEffect effectTemplateID="CrossfadeTransitionTemplate" duration="1.5">
          <BoundProperties />
        </ShapeEffect>
      </Transitions>
      <BoundProperties>
        <BoundPropertyInt Name="rotateStepNinety" Value="0" />
      </BoundProperties>
    </ImageClip>
    <ImageClip extentID="57" gapBefore="0" mediaItemID="53" duration="3.5">
      <Effects />
      <Transitions />
      <BoundProperties>
        <BoundPropertyInt Name="rotateStepNinety" Value="0" />
      </BoundProperties>
    </ImageClip>
    <ImageClip extentID="58" gapBefore="0" mediaItemID="54" duration="4">
      <Effects />
      <Transitions />
      <BoundProperties>
        <BoundPropertyInt Name="rotateStepNinety" Value="0" />
      </BoundProperties>
    </ImageClip>
    <AudioClip extentID="222" gapBefore="0" mediaItemID="217" inTime="0" outTime="850" speed="1">
      <Effects>
        <AudioEffect effectTemplateID="AudioFadeEffectTemplate">
          <BoundProperties>
            <BoundPropertyFloat Name="AudioFadeInDuration" Value="0" />
            <BoundPropertyFloat Name="AudioFadeOutDuration" Value="10" />
          </BoundProperties>
        </AudioEffect>
      </Effects>
      <Transitions />
      <BoundProperties>
        <BoundPropertyBool Name="Mute" Value="false" />
        <BoundPropertyFloat Name="Volume" Value="1" />
      </BoundProperties>
    </AudioClip>
    <ImageClip extentID="59" gapBefore="0" mediaItemID="55" duration="3">
      <Effects />
      <Transitions />
      <BoundProperties>
        <BoundPropertyInt Name="rotateStepNinety" Value="0" />
      </BoundProperties>
    </ImageClip>
    <ImageClip extentID="223" gapBefore="0" mediaItemID="184" duration="4">
      <Effects />
      <Transitions>
        <ShapeEffect effectTemplateID="CrossfadeTransitionTemplate" duration="1.5">
          <BoundProperties />
        </ShapeEffect>
      </Transitions>
      <BoundProperties>
        <BoundPropertyInt Name="rotateStepNinety" Value="0" />
      </BoundProperties>
    </ImageClip>
    <ImageClip extentID="60" gapBefore="0" mediaItemID="56" duration="3">
      <Effects />
      <Transitions />
      <BoundProperties>
        <BoundPropertyInt Name="rotateStepNinety" Value="0" />
      </BoundProperties>
    </ImageClip>
    <ImageClip extentID="224" gapBefore="0" mediaItemID="184" duration="3">
      <Effects />
      <Transitions>
        <ShapeEffect effectTemplateID="CrossfadeTransitionTemplate" duration="1.5">
          <BoundProperties />
        </ShapeEffect>
      </Transitions>
      <BoundProperties>
        <BoundPropertyInt Name="rotateStepNinety" Value="0" />
      </BoundProperties>
    </ImageClip>
    <ImageClip extentID="61" gapBefore="0" mediaItemID="57" duration="4">
      <Effects />
      <Transitions />
      <BoundProperties>
        <BoundPropertyInt Name="rotateStepNinety" Value="0" />
      </BoundProperties>
    </ImageClip>
    <ImageClip extentID="225" gapBefore="0" mediaItemID="197" duration="3">
      <Effects />
      <Transitions>
        <ShapeEffect effectTemplateID="CrossfadeTransitionTemplate" duration="2">
          <BoundProperties />
        </ShapeEffect>
      </Transitions>
      <BoundProperties>
        <BoundPropertyInt Name="rotateStepNinety" Value="0" />
      </BoundProperties>
    </ImageClip>
    <ImageClip extentID="62" gapBefore="0" mediaItemID="58" duration="4">
      <Effects />
      <Transitions />
      <BoundProperties>
        <BoundPropertyInt Name="rotateStepNinety" Value="0" />
      </BoundProperties>
    </ImageClip>
    <ImageClip extentID="63" gapBefore="0" mediaItemID="59" duration="4">
      <Effects />
      <Transitions />
      <BoundProperties>
        <BoundPropertyInt Name="rotateStepNinety" Value="0" />
      </BoundProperties>
    </ImageClip>
    <ImageClip extentID="226" gapBefore="0" mediaItemID="197" duration="2">
      <Effects />
      <Transitions>
        <ShapeEffect effectTemplateID="CrossfadeTransitionTemplate" duration="1.5">
          <BoundProperties />
        </ShapeEffect>
      </Transitions>
      <BoundProperties>
        <BoundPropertyInt Name="rotateStepNinety" Value="0" />
      </BoundProperties>
    </ImageClip>
    <ImageClip extentID="64" gapBefore="0" mediaItemID="60" duration="5">
      <Effects />
      <Transitions />
      <BoundProperties>
        <BoundPropertyInt Name="rotateStepNinety" Value="0" />
      </BoundProperties>
    </ImageClip>
    <ImageClip extentID="65" gapBefore="0" mediaItemID="61" duration="5">
      <Effects />
      <Transitions />
      <BoundProperties>
        <BoundPropertyInt Name="rotateStepNinety" Value="0" />
      </BoundProperties>
    </ImageClip>
    <ImageClip extentID="66" gapBefore="0" mediaItemID="62" duration="4">
      <Effects />
      <Transitions />
      <BoundProperties>
        <BoundPropertyInt Name="rotateStepNinety" Value="0" />
      </BoundProperties>
    </ImageClip>
    <ImageClip extentID="67" gapBefore="0" mediaItemID="63" duration="3">
      <Effects />
      <Transitions />
      <BoundProperties>
        <BoundPropertyInt Name="rotateStepNinety" Value="0" />
      </BoundProperties>
    </ImageClip>
    <ImageClip extentID="68" gapBefore="0" mediaItemID="64" duration="4">
      <Effects />
      <Transitions />
      <BoundProperties>
        <BoundPropertyInt Name="rotateStepNinety" Value="0" />
      </BoundProperties>
    </ImageClip>
    <ImageClip extentID="69" gapBefore="0" mediaItemID="65" duration="4">
      <Effects />
      <Transitions />
      <BoundProperties>
        <BoundPropertyInt Name="rotateStepNinety" Value="0" />
      </BoundProperties>
    </ImageClip>
    <ImageClip extentID="70" gapBefore="0" mediaItemID="66" duration="4">
      <Effects />
      <Transitions />
      <BoundProperties>
        <BoundPropertyInt Name="rotateStepNinety" Value="0" />
      </BoundProperties>
    </ImageClip>
    <ImageClip extentID="71" gapBefore="0" mediaItemID="67" duration="5">
      <Effects />
      <Transitions />
      <BoundProperties>
        <BoundPropertyInt Name="rotateStepNinety" Value="0" />
      </BoundProperties>
    </ImageClip>
    <ImageClip extentID="72" gapBefore="0" mediaItemID="68" duration="4">
      <Effects />
      <Transitions />
      <BoundProperties>
        <BoundPropertyInt Name="rotateStepNinety" Value="0" />
      </BoundProperties>
    </ImageClip>
    <ImageClip extentID="73" gapBefore="0" mediaItemID="69" duration="4">
      <Effects />
      <Transitions />
      <BoundProperties>
        <BoundPropertyInt Name="rotateStepNinety" Value="0" />
      </BoundProperties>
    </ImageClip>
    <ImageClip extentID="74" gapBefore="0" mediaItemID="70" duration="3">
      <Effects />
      <Transitions />
      <BoundProperties>
        <BoundPropertyInt Name="rotateStepNinety" Value="0" />
      </BoundProperties>
    </ImageClip>
    <ImageClip extentID="75" gapBefore="0" mediaItemID="71" duration="4">
      <Effects />
      <Transitions />
      <BoundProperties>
        <BoundPropertyInt Name="rotateStepNinety" Value="0" />
      </BoundProperties>
    </ImageClip>
    <ImageClip extentID="76" gapBefore="0" mediaItemID="72" duration="4">
      <Effects />
      <Transitions />
      <BoundProperties>
        <BoundPropertyInt Name="rotateStepNinety" Value="0" />
      </BoundProperties>
    </ImageClip>
    <ImageClip extentID="77" gapBefore="0" mediaItemID="73" duration="3.5">
      <Effects />
      <Transitions />
      <BoundProperties>
        <BoundPropertyInt Name="rotateStepNinety" Value="0" />
      </BoundProperties>
    </ImageClip>
    <ImageClip extentID="78" gapBefore="0" mediaItemID="74" duration="3.5">
      <Effects />
      <Transitions />
      <BoundProperties>
        <BoundPropertyInt Name="rotateStepNinety" Value="0" />
      </BoundProperties>
    </ImageClip>
    <ImageClip extentID="79" gapBefore="0" mediaItemID="75" duration="3.5">
      <Effects />
      <Transitions />
      <BoundProperties>
        <BoundPropertyInt Name="rotateStepNinety" Value="0" />
      </BoundProperties>
    </ImageClip>
    <ImageClip extentID="80" gapBefore="0" mediaItemID="76" duration="3.5">
      <Effects />
      <Transitions />
      <BoundProperties>
        <BoundPropertyInt Name="rotateStepNinety" Value="0" />
      </BoundProperties>
    </ImageClip>
    <ImageClip extentID="81" gapBefore="0" mediaItemID="77" duration="3.5">
      <Effects />
      <Transitions />
      <BoundProperties>
        <BoundPropertyInt Name="rotateStepNinety" Value="0" />
      </BoundProperties>
    </ImageClip>
    <ImageClip extentID="82" gapBefore="0" mediaItemID="78" duration="4">
      <Effects />
      <Transitions />
      <BoundProperties>
        <BoundPropertyInt Name="rotateStepNinety" Value="0" />
      </BoundProperties>
    </ImageClip>
    <ImageClip extentID="83" gapBefore="0" mediaItemID="79" duration="4">
      <Effects />
      <Transitions />
      <BoundProperties>
        <BoundPropertyInt Name="rotateStepNinety" Value="0" />
      </BoundProperties>
    </ImageClip>
    <ImageClip extentID="84" gapBefore="0" mediaItemID="80" duration="4">
      <Effects />
      <Transitions />
      <BoundProperties>
        <BoundPropertyInt Name="rotateStepNinety" Value="0" />
      </BoundProperties>
    </ImageClip>
    <ImageClip extentID="85" gapBefore="0" mediaItemID="81" duration="4">
      <Effects />
      <Transitions />
      <BoundProperties>
        <BoundPropertyInt Name="rotateStepNinety" Value="0" />
      </BoundProperties>
    </ImageClip>
    <ImageClip extentID="86" gapBefore="0" mediaItemID="82" duration="4">
      <Effects />
      <Transitions />
      <BoundProperties>
        <BoundPropertyInt Name="rotateStepNinety" Value="0" />
      </BoundProperties>
    </ImageClip>
    <ImageClip extentID="87" gapBefore="0" mediaItemID="83" duration="4">
      <Effects />
      <Transitions />
      <BoundProperties>
        <BoundPropertyInt Name="rotateStepNinety" Value="0" />
      </BoundProperties>
    </ImageClip>
    <ImageClip extentID="88" gapBefore="0" mediaItemID="84" duration="4">
      <Effects />
      <Transitions />
      <BoundProperties>
        <BoundPropertyInt Name="rotateStepNinety" Value="0" />
      </BoundProperties>
    </ImageClip>
    <ImageClip extentID="89" gapBefore="0" mediaItemID="85" duration="4">
      <Effects />
      <Transitions />
      <BoundProperties>
        <BoundPropertyInt Name="rotateStepNinety" Value="0" />
      </BoundProperties>
    </ImageClip>
    <ImageClip extentID="90" gapBefore="0" mediaItemID="86" duration="4">
      <Effects />
      <Transitions />
      <BoundProperties>
        <BoundPropertyInt Name="rotateStepNinety" Value="0" />
      </BoundProperties>
    </ImageClip>
    <ImageClip extentID="91" gapBefore="0" mediaItemID="87" duration="4">
      <Effects />
      <Transitions />
      <BoundProperties>
        <BoundPropertyInt Name="rotateStepNinety" Value="0" />
      </BoundProperties>
    </ImageClip>
    <ImageClip extentID="92" gapBefore="0" mediaItemID="88" duration="4">
      <Effects />
      <Transitions />
      <BoundProperties>
        <BoundPropertyInt Name="rotateStepNinety" Value="0" />
      </BoundProperties>
    </ImageClip>
    <ImageClip extentID="93" gapBefore="0" mediaItemID="89" duration="4">
      <Effects />
      <Transitions />
      <BoundProperties>
        <BoundPropertyInt Name="rotateStepNinety" Value="0" />
      </BoundProperties>
    </ImageClip>
    <ImageClip extentID="94" gapBefore="0" mediaItemID="90" duration="4">
      <Effects />
      <Transitions />
      <BoundProperties>
        <BoundPropertyInt Name="rotateStepNinety" Value="0" />
      </BoundProperties>
    </ImageClip>
    <ImageClip extentID="95" gapBefore="0" mediaItemID="91" duration="5">
      <Effects />
      <Transitions />
      <BoundProperties>
        <BoundPropertyInt Name="rotateStepNinety" Value="0" />
      </BoundProperties>
    </ImageClip>
    <ImageClip extentID="96" gapBefore="0" mediaItemID="92" duration="4">
      <Effects />
      <Transitions />
      <BoundProperties>
        <BoundPropertyInt Name="rotateStepNinety" Value="0" />
      </BoundProperties>
    </ImageClip>
    <ImageClip extentID="97" gapBefore="0" mediaItemID="93" duration="4">
      <Effects />
      <Transitions />
      <BoundProperties>
        <BoundPropertyInt Name="rotateStepNinety" Value="0" />
      </BoundProperties>
    </ImageClip>
    <ImageClip extentID="98" gapBefore="0" mediaItemID="94" duration="3">
      <Effects />
      <Transitions />
      <BoundProperties>
        <BoundPropertyInt Name="rotateStepNinety" Value="0" />
      </BoundProperties>
    </ImageClip>
    <ImageClip extentID="99" gapBefore="0" mediaItemID="95" duration="4.5">
      <Effects />
      <Transitions>
        <ShapeEffect effectTemplateID="CrossfadeTransitionTemplate" duration="1.5">
          <BoundProperties />
        </ShapeEffect>
      </Transitions>
      <BoundProperties>
        <BoundPropertyInt Name="rotateStepNinety" Value="0" />
      </BoundProperties>
    </ImageClip>
    <ImageClip extentID="100" gapBefore="0" mediaItemID="96" duration="3.5">
      <Effects />
      <Transitions />
      <BoundProperties>
        <BoundPropertyInt Name="rotateStepNinety" Value="0" />
      </BoundProperties>
    </ImageClip>
    <ImageClip extentID="101" gapBefore="0" mediaItemID="97" duration="3.5">
      <Effects />
      <Transitions />
      <BoundProperties>
        <BoundPropertyInt Name="rotateStepNinety" Value="0" />
      </BoundProperties>
    </ImageClip>
    <ImageClip extentID="102" gapBefore="0" mediaItemID="98" duration="3.5">
      <Effects />
      <Transitions />
      <BoundProperties>
        <BoundPropertyInt Name="rotateStepNinety" Value="0" />
      </BoundProperties>
    </ImageClip>
    <ImageClip extentID="103" gapBefore="0" mediaItemID="99" duration="4">
      <Effects />
      <Transitions />
      <BoundProperties>
        <BoundPropertyInt Name="rotateStepNinety" Value="0" />
      </BoundProperties>
    </ImageClip>
    <ImageClip extentID="104" gapBefore="0" mediaItemID="100" duration="3.5">
      <Effects />
      <Transitions />
      <BoundProperties>
        <BoundPropertyInt Name="rotateStepNinety" Value="0" />
      </BoundProperties>
    </ImageClip>
    <ImageClip extentID="105" gapBefore="0" mediaItemID="101" duration="3.5">
      <Effects />
      <Transitions />
      <BoundProperties>
        <BoundPropertyInt Name="rotateStepNinety" Value="0" />
      </BoundProperties>
    </ImageClip>
    <ImageClip extentID="106" gapBefore="0" mediaItemID="102" duration="7">
      <Effects />
      <Transitions />
      <BoundProperties>
        <BoundPropertyInt Name="rotateStepNinety" Value="0" />
      </BoundProperties>
    </ImageClip>
    <ImageClip extentID="107" gapBefore="0" mediaItemID="103" duration="4">
      <Effects />
      <Transitions />
      <BoundProperties>
        <BoundPropertyInt Name="rotateStepNinety" Value="0" />
      </BoundProperties>
    </ImageClip>
    <ImageClip extentID="108" gapBefore="0" mediaItemID="104" duration="4">
      <Effects />
      <Transitions />
      <BoundProperties>
        <BoundPropertyInt Name="rotateStepNinety" Value="0" />
      </BoundProperties>
    </ImageClip>
    <ImageClip extentID="109" gapBefore="0" mediaItemID="105" duration="4">
      <Effects />
      <Transitions />
      <BoundProperties>
        <BoundPropertyInt Name="rotateStepNinety" Value="0" />
      </BoundProperties>
    </ImageClip>
    <ImageClip extentID="110" gapBefore="0" mediaItemID="106" duration="4">
      <Effects />
      <Transitions />
      <BoundProperties>
        <BoundPropertyInt Name="rotateStepNinety" Value="0" />
      </BoundProperties>
    </ImageClip>
    <ImageClip extentID="111" gapBefore="0" mediaItemID="107" duration="5">
      <Effects />
      <Transitions />
      <BoundProperties>
        <BoundPropertyInt Name="rotateStepNinety" Value="0" />
      </BoundProperties>
    </ImageClip>
    <ImageClip extentID="112" gapBefore="0" mediaItemID="108" duration="4">
      <Effects />
      <Transitions />
      <BoundProperties>
        <BoundPropertyInt Name="rotateStepNinety" Value="0" />
      </BoundProperties>
    </ImageClip>
    <ImageClip extentID="113" gapBefore="0" mediaItemID="109" duration="4">
      <Effects />
      <Transitions />
      <BoundProperties>
        <BoundPropertyInt Name="rotateStepNinety" Value="0" />
      </BoundProperties>
    </ImageClip>
    <ImageClip extentID="114" gapBefore="0" mediaItemID="110" duration="4">
      <Effects />
      <Transitions />
      <BoundProperties>
        <BoundPropertyInt Name="rotateStepNinety" Value="0" />
      </BoundProperties>
    </ImageClip>
    <ImageClip extentID="115" gapBefore="0" mediaItemID="111" duration="6.5">
      <Effects />
      <Transitions />
      <BoundProperties>
        <BoundPropertyInt Name="rotateStepNinety" Value="0" />
      </BoundProperties>
    </ImageClip>
    <ImageClip extentID="116" gapBefore="0" mediaItemID="112" duration="3">
      <Effects />
      <Transitions />
      <BoundProperties>
        <BoundPropertyInt Name="rotateStepNinety" Value="0" />
      </BoundProperties>
    </ImageClip>
    <ImageClip extentID="117" gapBefore="0" mediaItemID="113" duration="3.5">
      <Effects />
      <Transitions />
      <BoundProperties>
        <BoundPropertyInt Name="rotateStepNinety" Value="0" />
      </BoundProperties>
    </ImageClip>
    <ImageClip extentID="118" gapBefore="0" mediaItemID="114" duration="3.5">
      <Effects />
      <Transitions />
      <BoundProperties>
        <BoundPropertyInt Name="rotateStepNinety" Value="0" />
      </BoundProperties>
    </ImageClip>
    <ImageClip extentID="119" gapBefore="0" mediaItemID="115" duration="4">
      <Effects />
      <Transitions />
      <BoundProperties>
        <BoundPropertyInt Name="rotateStepNinety" Value="0" />
      </BoundProperties>
    </ImageClip>
    <ImageClip extentID="120" gapBefore="0" mediaItemID="116" duration="4">
      <Effects />
      <Transitions />
      <BoundProperties>
        <BoundPropertyInt Name="rotateStepNinety" Value="0" />
      </BoundProperties>
    </ImageClip>
    <ImageClip extentID="121" gapBefore="0" mediaItemID="117" duration="4">
      <Effects />
      <Transitions />
      <BoundProperties>
        <BoundPropertyInt Name="rotateStepNinety" Value="0" />
      </BoundProperties>
    </ImageClip>
    <ImageClip extentID="122" gapBefore="0" mediaItemID="118" duration="3">
      <Effects />
      <Transitions />
      <BoundProperties>
        <BoundPropertyInt Name="rotateStepNinety" Value="0" />
      </BoundProperties>
    </ImageClip>
    <ImageClip extentID="123" gapBefore="0" mediaItemID="119" duration="2">
      <Effects />
      <Transitions />
      <BoundProperties>
        <BoundPropertyInt Name="rotateStepNinety" Value="0" />
      </BoundProperties>
    </ImageClip>
    <ImageClip extentID="124" gapBefore="0" mediaItemID="120" duration="3">
      <Effects />
      <Transitions />
      <BoundProperties>
        <BoundPropertyInt Name="rotateStepNinety" Value="0" />
      </BoundProperties>
    </ImageClip>
    <ImageClip extentID="125" gapBefore="0" mediaItemID="121" duration="5">
      <Effects />
      <Transitions />
      <BoundProperties>
        <BoundPropertyInt Name="rotateStepNinety" Value="0" />
      </BoundProperties>
    </ImageClip>
    <ImageClip extentID="126" gapBefore="0" mediaItemID="122" duration="4.5">
      <Effects />
      <Transitions>
        <ShapeEffect effectTemplateID="CrossfadeTransitionTemplate" duration="1.5">
          <BoundProperties />
        </ShapeEffect>
      </Transitions>
      <BoundProperties>
        <BoundPropertyInt Name="rotateStepNinety" Value="0" />
      </BoundProperties>
    </ImageClip>
    <ImageClip extentID="127" gapBefore="0" mediaItemID="123" duration="4">
      <Effects />
      <Transitions />
      <BoundProperties>
        <BoundPropertyInt Name="rotateStepNinety" Value="0" />
      </BoundProperties>
    </ImageClip>
    <ImageClip extentID="128" gapBefore="0" mediaItemID="124" duration="3">
      <Effects />
      <Transitions />
      <BoundProperties>
        <BoundPropertyInt Name="rotateStepNinety" Value="0" />
      </BoundProperties>
    </ImageClip>
    <ImageClip extentID="129" gapBefore="0" mediaItemID="125" duration="3">
      <Effects />
      <Transitions />
      <BoundProperties>
        <BoundPropertyInt Name="rotateStepNinety" Value="0" />
      </BoundProperties>
    </ImageClip>
    <ImageClip extentID="130" gapBefore="0" mediaItemID="126" duration="4">
      <Effects />
      <Transitions />
      <BoundProperties>
        <BoundPropertyInt Name="rotateStepNinety" Value="0" />
      </BoundProperties>
    </ImageClip>
    <ImageClip extentID="131" gapBefore="0" mediaItemID="127" duration="3">
      <Effects />
      <Transitions />
      <BoundProperties>
        <BoundPropertyInt Name="rotateStepNinety" Value="0" />
      </BoundProperties>
    </ImageClip>
    <ImageClip extentID="132" gapBefore="0" mediaItemID="128" duration="4">
      <Effects />
      <Transitions />
      <BoundProperties>
        <BoundPropertyInt Name="rotateStepNinety" Value="0" />
      </BoundProperties>
    </ImageClip>
    <ImageClip extentID="133" gapBefore="0" mediaItemID="129" duration="4">
      <Effects />
      <Transitions />
      <BoundProperties>
        <BoundPropertyInt Name="rotateStepNinety" Value="0" />
      </BoundProperties>
    </ImageClip>
    <ImageClip extentID="134" gapBefore="0" mediaItemID="130" duration="4">
      <Effects />
      <Transitions />
      <BoundProperties>
        <BoundPropertyInt Name="rotateStepNinety" Value="0" />
      </BoundProperties>
    </ImageClip>
    <ImageClip extentID="135" gapBefore="0" mediaItemID="131" duration="4">
      <Effects />
      <Transitions />
      <BoundProperties>
        <BoundPropertyInt Name="rotateStepNinety" Value="0" />
      </BoundProperties>
    </ImageClip>
    <ImageClip extentID="136" gapBefore="0" mediaItemID="132" duration="4">
      <Effects />
      <Transitions />
      <BoundProperties>
        <BoundPropertyInt Name="rotateStepNinety" Value="0" />
      </BoundProperties>
    </ImageClip>
    <ImageClip extentID="137" gapBefore="0" mediaItemID="133" duration="5">
      <Effects />
      <Transitions />
      <BoundProperties>
        <BoundPropertyInt Name="rotateStepNinety" Value="0" />
      </BoundProperties>
    </ImageClip>
    <ImageClip extentID="138" gapBefore="0" mediaItemID="134" duration="5.5">
      <Effects />
      <Transitions />
      <BoundProperties>
        <BoundPropertyInt Name="rotateStepNinety" Value="0" />
      </BoundProperties>
    </ImageClip>
    <ImageClip extentID="139" gapBefore="0" mediaItemID="135" duration="3">
      <Effects />
      <Transitions />
      <BoundProperties>
        <BoundPropertyInt Name="rotateStepNinety" Value="0" />
      </BoundProperties>
    </ImageClip>
    <ImageClip extentID="140" gapBefore="0" mediaItemID="136" duration="5">
      <Effects />
      <Transitions />
      <BoundProperties>
        <BoundPropertyInt Name="rotateStepNinety" Value="0" />
      </BoundProperties>
    </ImageClip>
    <ImageClip extentID="141" gapBefore="0" mediaItemID="137" duration="6">
      <Effects />
      <Transitions />
      <BoundProperties>
        <BoundPropertyInt Name="rotateStepNinety" Value="0" />
      </BoundProperties>
    </ImageClip>
    <ImageClip extentID="142" gapBefore="0" mediaItemID="138" duration="4.5">
      <Effects />
      <Transitions />
      <BoundProperties>
        <BoundPropertyInt Name="rotateStepNinety" Value="0" />
      </BoundProperties>
    </ImageClip>
    <ImageClip extentID="143" gapBefore="0" mediaItemID="139" duration="2">
      <Effects />
      <Transitions />
      <BoundProperties>
        <BoundPropertyInt Name="rotateStepNinety" Value="0" />
      </BoundProperties>
    </ImageClip>
    <ImageClip extentID="144" gapBefore="0" mediaItemID="140" duration="3.5">
      <Effects />
      <Transitions />
      <BoundProperties>
        <BoundPropertyInt Name="rotateStepNinety" Value="0" />
      </BoundProperties>
    </ImageClip>
    <ImageClip extentID="145" gapBefore="0" mediaItemID="141" duration="5">
      <Effects />
      <Transitions />
      <BoundProperties>
        <BoundPropertyInt Name="rotateStepNinety" Value="0" />
      </BoundProperties>
    </ImageClip>
    <ImageClip extentID="146" gapBefore="0" mediaItemID="142" duration="5.5">
      <Effects />
      <Transitions />
      <BoundProperties>
        <BoundPropertyInt Name="rotateStepNinety" Value="0" />
      </BoundProperties>
    </ImageClip>
    <ImageClip extentID="147" gapBefore="0" mediaItemID="143" duration="4.5">
      <Effects />
      <Transitions />
      <BoundProperties>
        <BoundPropertyInt Name="rotateStepNinety" Value="0" />
      </BoundProperties>
    </ImageClip>
    <ImageClip extentID="148" gapBefore="0" mediaItemID="144" duration="6">
      <Effects />
      <Transitions />
      <BoundProperties>
        <BoundPropertyInt Name="rotateStepNinety" Value="0" />
      </BoundProperties>
    </ImageClip>
    <ImageClip extentID="149" gapBefore="0" mediaItemID="205" duration="4">
      <Effects />
      <Transitions />
      <BoundProperties>
        <BoundPropertyInt Name="rotateStepNinety" Value="0" />
      </BoundProperties>
    </ImageClip>
    <ImageClip extentID="150" gapBefore="0" mediaItemID="146" duration="6">
      <Effects />
      <Transitions />
      <BoundProperties>
        <BoundPropertyInt Name="rotateStepNinety" Value="0" />
      </BoundProperties>
    </ImageClip>
    <ImageClip extentID="151" gapBefore="0" mediaItemID="147" duration="4">
      <Effects />
      <Transitions />
      <BoundProperties>
        <BoundPropertyInt Name="rotateStepNinety" Value="0" />
      </BoundProperties>
    </ImageClip>
    <ImageClip extentID="152" gapBefore="0" mediaItemID="148" duration="2">
      <Effects />
      <Transitions />
      <BoundProperties>
        <BoundPropertyInt Name="rotateStepNinety" Value="0" />
      </BoundProperties>
    </ImageClip>
    <ImageClip extentID="153" gapBefore="0" mediaItemID="149" duration="4">
      <Effects />
      <Transitions />
      <BoundProperties>
        <BoundPropertyInt Name="rotateStepNinety" Value="0" />
      </BoundProperties>
    </ImageClip>
    <ImageClip extentID="154" gapBefore="0" mediaItemID="150" duration="4">
      <Effects />
      <Transitions />
      <BoundProperties>
        <BoundPropertyInt Name="rotateStepNinety" Value="0" />
      </BoundProperties>
    </ImageClip>
    <ImageClip extentID="155" gapBefore="0" mediaItemID="151" duration="3">
      <Effects />
      <Transitions />
      <BoundProperties>
        <BoundPropertyInt Name="rotateStepNinety" Value="0" />
      </BoundProperties>
    </ImageClip>
    <ImageClip extentID="156" gapBefore="0" mediaItemID="152" duration="3">
      <Effects />
      <Transitions />
      <BoundProperties>
        <BoundPropertyInt Name="rotateStepNinety" Value="0" />
      </BoundProperties>
    </ImageClip>
    <ImageClip extentID="157" gapBefore="0" mediaItemID="153" duration="3">
      <Effects />
      <Transitions />
      <BoundProperties>
        <BoundPropertyInt Name="rotateStepNinety" Value="0" />
      </BoundProperties>
    </ImageClip>
    <ImageClip extentID="158" gapBefore="0" mediaItemID="154" duration="3">
      <Effects />
      <Transitions />
      <BoundProperties>
        <BoundPropertyInt Name="rotateStepNinety" Value="0" />
      </BoundProperties>
    </ImageClip>
    <ImageClip extentID="159" gapBefore="0" mediaItemID="155" duration="4">
      <Effects />
      <Transitions />
      <BoundProperties>
        <BoundPropertyInt Name="rotateStepNinety" Value="0" />
      </BoundProperties>
    </ImageClip>
    <ImageClip extentID="160" gapBefore="0" mediaItemID="156" duration="4">
      <Effects />
      <Transitions />
      <BoundProperties>
        <BoundPropertyInt Name="rotateStepNinety" Value="0" />
      </BoundProperties>
    </ImageClip>
    <ImageClip extentID="161" gapBefore="0" mediaItemID="157" duration="3">
      <Effects />
      <Transitions />
      <BoundProperties>
        <BoundPropertyInt Name="rotateStepNinety" Value="0" />
      </BoundProperties>
    </ImageClip>
    <ImageClip extentID="162" gapBefore="0" mediaItemID="158" duration="4.5">
      <Effects />
      <Transitions />
      <BoundProperties>
        <BoundPropertyInt Name="rotateStepNinety" Value="0" />
      </BoundProperties>
    </ImageClip>
    <ExtentSelector extentID="1" gapBefore="0" primaryTrack="true">
      <Effects />
      <Transitions />
      <BoundProperties />
      <ExtentRefs>
        <ExtentRef id="5" />
        <ExtentRef id="6" />
        <ExtentRef id="7" />
        <ExtentRef id="8" />
        <ExtentRef id="9" />
        <ExtentRef id="10" />
        <ExtentRef id="11" />
        <ExtentRef id="12" />
        <ExtentRef id="13" />
        <ExtentRef id="14" />
        <ExtentRef id="15" />
        <ExtentRef id="16" />
        <ExtentRef id="17" />
        <ExtentRef id="18" />
        <ExtentRef id="19" />
        <ExtentRef id="20" />
        <ExtentRef id="21" />
        <ExtentRef id="22" />
        <ExtentRef id="23" />
        <ExtentRef id="24" />
        <ExtentRef id="25" />
        <ExtentRef id="26" />
        <ExtentRef id="27" />
        <ExtentRef id="28" />
        <ExtentRef id="29" />
        <ExtentRef id="30" />
        <ExtentRef id="31" />
        <ExtentRef id="32" />
        <ExtentRef id="33" />
        <ExtentRef id="149" />
        <ExtentRef id="35" />
        <ExtentRef id="36" />
        <ExtentRef id="37" />
        <ExtentRef id="38" />
        <ExtentRef id="39" />
        <ExtentRef id="40" />
        <ExtentRef id="41" />
        <ExtentRef id="42" />
        <ExtentRef id="43" />
        <ExtentRef id="44" />
        <ExtentRef id="45" />
        <ExtentRef id="46" />
        <ExtentRef id="47" />
        <ExtentRef id="48" />
        <ExtentRef id="49" />
        <ExtentRef id="50" />
        <ExtentRef id="51" />
        <ExtentRef id="52" />
        <ExtentRef id="53" />
        <ExtentRef id="54" />
        <ExtentRef id="55" />
        <ExtentRef id="56" />
        <ExtentRef id="57" />
        <ExtentRef id="58" />
        <ExtentRef id="59" />
        <ExtentRef id="60" />
        <ExtentRef id="61" />
        <ExtentRef id="62" />
        <ExtentRef id="63" />
        <ExtentRef id="64" />
        <ExtentRef id="65" />
        <ExtentRef id="66" />
        <ExtentRef id="67" />
        <ExtentRef id="68" />
        <ExtentRef id="69" />
        <ExtentRef id="70" />
        <ExtentRef id="71" />
        <ExtentRef id="72" />
        <ExtentRef id="73" />
        <ExtentRef id="74" />
        <ExtentRef id="75" />
        <ExtentRef id="76" />
        <ExtentRef id="77" />
        <ExtentRef id="78" />
        <ExtentRef id="79" />
        <ExtentRef id="80" />
        <ExtentRef id="81" />
        <ExtentRef id="82" />
        <ExtentRef id="83" />
        <ExtentRef id="84" />
        <ExtentRef id="85" />
        <ExtentRef id="86" />
        <ExtentRef id="87" />
        <ExtentRef id="88" />
        <ExtentRef id="89" />
        <ExtentRef id="90" />
        <ExtentRef id="91" />
        <ExtentRef id="92" />
        <ExtentRef id="93" />
        <ExtentRef id="94" />
        <ExtentRef id="95" />
        <ExtentRef id="96" />
        <ExtentRef id="97" />
        <ExtentRef id="98" />
        <ExtentRef id="223" />
        <ExtentRef id="99" />
        <ExtentRef id="100" />
        <ExtentRef id="101" />
        <ExtentRef id="102" />
        <ExtentRef id="103" />
        <ExtentRef id="104" />
        <ExtentRef id="105" />
        <ExtentRef id="106" />
        <ExtentRef id="107" />
        <ExtentRef id="108" />
        <ExtentRef id="109" />
        <ExtentRef id="110" />
        <ExtentRef id="111" />
        <ExtentRef id="112" />
        <ExtentRef id="113" />
        <ExtentRef id="114" />
        <ExtentRef id="115" />
        <ExtentRef id="116" />
        <ExtentRef id="117" />
        <ExtentRef id="118" />
        <ExtentRef id="119" />
        <ExtentRef id="120" />
        <ExtentRef id="121" />
        <ExtentRef id="122" />
        <ExtentRef id="123" />
        <ExtentRef id="124" />
        <ExtentRef id="125" />
        <ExtentRef id="224" />
        <ExtentRef id="126" />
        <ExtentRef id="127" />
        <ExtentRef id="128" />
        <ExtentRef id="129" />
        <ExtentRef id="130" />
        <ExtentRef id="131" />
        <ExtentRef id="132" />
        <ExtentRef id="133" />
        <ExtentRef id="134" />
        <ExtentRef id="135" />
        <ExtentRef id="136" />
        <ExtentRef id="137" />
        <ExtentRef id="138" />
        <ExtentRef id="139" />
        <ExtentRef id="140" />
        <ExtentRef id="141" />
        <ExtentRef id="142" />
        <ExtentRef id="143" />
        <ExtentRef id="144" />
        <ExtentRef id="145" />
        <ExtentRef id="146" />
        <ExtentRef id="147" />
        <ExtentRef id="148" />
        <ExtentRef id="209" />
        <ExtentRef id="150" />
        <ExtentRef id="151" />
        <ExtentRef id="152" />
        <ExtentRef id="153" />
        <ExtentRef id="154" />
        <ExtentRef id="155" />
        <ExtentRef id="156" />
        <ExtentRef id="157" />
        <ExtentRef id="158" />
        <ExtentRef id="159" />
        <ExtentRef id="160" />
        <ExtentRef id="161" />
        <ExtentRef id="162" />
        <ExtentRef id="163" />
        <ExtentRef id="164" />
        <ExtentRef id="165" />
        <ExtentRef id="166" />
        <ExtentRef id="167" />
        <ExtentRef id="168" />
        <ExtentRef id="169" />
        <ExtentRef id="170" />
        <ExtentRef id="171" />
        <ExtentRef id="172" />
        <ExtentRef id="173" />
        <ExtentRef id="174" />
        <ExtentRef id="175" />
        <ExtentRef id="176" />
        <ExtentRef id="177" />
        <ExtentRef id="178" />
        <ExtentRef id="179" />
        <ExtentRef id="180" />
        <ExtentRef id="181" />
        <ExtentRef id="182" />
        <ExtentRef id="183" />
        <ExtentRef id="184" />
        <ExtentRef id="185" />
        <ExtentRef id="186" />
        <ExtentRef id="187" />
        <ExtentRef id="188" />
        <ExtentRef id="189" />
        <ExtentRef id="190" />
        <ExtentRef id="191" />
        <ExtentRef id="192" />
        <ExtentRef id="193" />
        <ExtentRef id="194" />
        <ExtentRef id="195" />
        <ExtentRef id="196" />
        <ExtentRef id="197" />
        <ExtentRef id="198" />
        <ExtentRef id="199" />
        <ExtentRef id="200" />
        <ExtentRef id="201" />
        <ExtentRef id="202" />
        <ExtentRef id="203" />
        <ExtentRef id="204" />
        <ExtentRef id="205" />
        <ExtentRef id="206" />
        <ExtentRef id="207" />
        <ExtentRef id="208" />
        <ExtentRef id="225" />
        <ExtentRef id="210" />
        <ExtentRef id="211" />
        <ExtentRef id="212" />
        <ExtentRef id="213" />
        <ExtentRef id="214" />
        <ExtentRef id="215" />
        <ExtentRef id="216" />
        <ExtentRef id="217" />
        <ExtentRef id="218" />
        <ExtentRef id="219" />
        <ExtentRef id="226" />
        <ExtentRef id="220" />
      </ExtentRefs>
    </ExtentSelector>
    <ExtentSelector extentID="2" gapBefore="0" primaryTrack="false">
      <Effects />
      <Transitions />
      <BoundProperties />
      <ExtentRefs>
        <ExtentRef id="222" />
      </ExtentRefs>
    </ExtentSelector>
    <ExtentSelector extentID="3" gapBefore="0" primaryTrack="false">
      <Effects />
      <Transitions />
      <BoundProperties />
      <ExtentRefs />
    </ExtentSelector>
    <ExtentSelector extentID="4" gapBefore="0" primaryTrack="false">
      <Effects />
      <Transitions />
      <BoundProperties />
      <ExtentRefs />
    </ExtentSelector>
  </Extents>
  <BoundPlaceholders>
    <BoundPlaceholder placeholderID="SingleExtentView" extentID="0" />
    <BoundPlaceholder placeholderID="Main" extentID="1" />
    <BoundPlaceholder placeholderID="SoundTrack" extentID="2" />
    <BoundPlaceholder placeholderID="Text" extentID="4" />
    <BoundPlaceholder placeholderID="Narration" extentID="3" />
  </BoundPlaceholders>
  <BoundProperties>
    <BoundPropertyFloatSet Name="AspectRatio">
      <BoundPropertyFloatElement Value="1.7777776718139648" />
    </BoundPropertyFloatSet>
    <BoundPropertyFloat Name="SoundTrackMix" Value="1" />
  </BoundProperties>
  <ThemeOperationLog themeID="0">
    <MonolithicThemeOperations />
  </ThemeOperationLog>
</Project>